<svg xmlns="http://www.w3.org/2000/svg" xmlns:xlink="http://www.w3.org/1999/xlink" width="500" zoomAndPan="magnify" viewBox="0 0 375 149.999998" height="200" preserveAspectRatio="xMidYMid meet" version="1.0"><defs><g/><clipPath id="c13046177d"><path d="M 15 7.457031 L 150.066406 7.457031 L 150.066406 143 L 15 143 Z M 15 7.457031 " clip-rule="nonzero"/></clipPath><clipPath id="55b2306d08"><path d="M 21.898438 7.457031 L 143.167969 7.457031 C 144.996094 7.457031 146.753906 8.1875 148.046875 9.480469 C 149.339844 10.773438 150.066406 12.527344 150.066406 14.359375 L 150.066406 135.640625 C 150.066406 137.472656 149.339844 139.226562 148.046875 140.519531 C 146.753906 141.8125 144.996094 142.542969 143.167969 142.542969 L 21.898438 142.542969 C 20.070312 142.542969 18.316406 141.8125 17.019531 140.519531 C 15.726562 139.226562 15 137.472656 15 135.640625 L 15 14.359375 C 15 12.527344 15.726562 10.773438 17.019531 9.480469 C 18.316406 8.1875 20.070312 7.457031 21.898438 7.457031 Z M 21.898438 7.457031 " clip-rule="nonzero"/></clipPath><clipPath id="c10be12168"><path d="M 36 29 L 128.902344 29 L 128.902344 121.859375 L 36 121.859375 Z M 36 29 " clip-rule="nonzero"/></clipPath><clipPath id="4f4be75d53"><path d="M 113.3125 80.425781 C 114.332031 80.433594 115.34375 80.339844 116.347656 80.144531 C 117.347656 79.949219 118.320312 79.660156 119.265625 79.277344 C 120.210938 78.890625 121.109375 78.417969 121.960938 77.855469 C 122.8125 77.292969 123.601562 76.652344 124.328125 75.933594 C 125.050781 75.21875 125.699219 74.4375 126.273438 73.589844 C 126.84375 72.746094 127.328125 71.851562 127.722656 70.910156 C 128.117188 69.972656 128.417969 69 128.625 68 C 128.828125 67 128.933594 65.992188 128.9375 64.972656 C 128.945312 63.949219 128.851562 62.941406 128.65625 61.9375 C 128.464844 60.9375 128.175781 59.960938 127.789062 59.019531 C 127.402344 58.074219 126.929688 57.175781 126.367188 56.324219 C 125.804688 55.472656 125.164062 54.683594 124.449219 53.957031 C 123.730469 53.230469 122.949219 52.582031 122.101562 52.011719 C 121.257812 51.441406 120.363281 50.957031 119.425781 50.5625 C 118.484375 50.164062 117.515625 49.863281 116.515625 49.660156 C 115.515625 49.457031 114.503906 49.351562 113.484375 49.34375 C 113.375 48.867188 113.222656 48.398438 113.035156 47.945312 C 112.847656 47.492188 112.621094 47.058594 112.359375 46.644531 C 112.097656 46.226562 111.800781 45.835938 111.472656 45.46875 C 111.144531 45.105469 110.789062 44.769531 110.40625 44.460938 C 110.023438 44.15625 109.613281 43.882812 109.183594 43.648438 C 108.753906 43.410156 108.308594 43.210938 107.84375 43.046875 C 107.378906 42.882812 106.90625 42.761719 106.421875 42.679688 C 105.9375 42.597656 105.449219 42.554688 104.960938 42.554688 C 104.578125 42.554688 104.199219 42.578125 103.824219 42.628906 C 103.371094 42.074219 102.875 41.558594 102.34375 41.078125 C 101.808594 40.601562 101.242188 40.167969 100.636719 39.78125 C 100.035156 39.390625 99.410156 39.050781 98.753906 38.761719 C 98.097656 38.472656 97.425781 38.234375 96.734375 38.050781 C 96.042969 37.867188 95.339844 37.734375 94.625 37.660156 C 93.914062 37.585938 93.199219 37.566406 92.484375 37.605469 C 91.769531 37.640625 91.0625 37.734375 90.359375 37.882812 C 89.660156 38.03125 88.976562 38.234375 88.304688 38.488281 C 87.65625 37.613281 86.945312 36.792969 86.171875 36.023438 C 85.402344 35.257812 84.574219 34.550781 83.695312 33.910156 C 82.8125 33.265625 81.890625 32.695312 80.921875 32.195312 C 79.957031 31.691406 78.957031 31.265625 77.925781 30.914062 C 76.894531 30.566406 75.839844 30.296875 74.769531 30.105469 C 73.695312 29.914062 72.613281 29.804688 71.527344 29.78125 C 70.4375 29.753906 69.351562 29.808594 68.269531 29.949219 C 67.191406 30.085938 66.125 30.304688 65.078125 30.605469 C 64.03125 30.90625 63.011719 31.285156 62.023438 31.738281 C 61.03125 32.191406 60.082031 32.71875 59.171875 33.316406 C 58.261719 33.917969 57.402344 34.582031 56.59375 35.3125 C 55.785156 36.039062 55.035156 36.828125 54.34375 37.667969 C 53.65625 38.511719 53.03125 39.402344 52.476562 40.339844 C 51.921875 41.277344 51.441406 42.253906 51.035156 43.261719 C 50.628906 44.273438 50.300781 45.308594 50.050781 46.371094 C 49.800781 47.429688 49.632812 48.503906 49.546875 49.589844 C 48.601562 49.761719 47.675781 50.015625 46.777344 50.359375 C 45.878906 50.699219 45.019531 51.121094 44.195312 51.621094 C 43.375 52.125 42.609375 52.695312 41.894531 53.339844 C 41.179688 53.984375 40.527344 54.6875 39.945312 55.453125 C 39.359375 56.21875 38.851562 57.03125 38.417969 57.890625 C 37.984375 58.746094 37.636719 59.640625 37.367188 60.5625 C 37.101562 61.488281 36.921875 62.429688 36.828125 63.386719 C 36.734375 64.34375 36.730469 65.300781 36.816406 66.261719 C 36.902344 67.21875 37.074219 68.160156 37.335938 69.085938 C 37.59375 70.015625 37.9375 70.910156 38.363281 71.769531 C 38.789062 72.632812 39.292969 73.449219 39.871094 74.21875 C 40.449219 74.988281 41.089844 75.699219 41.800781 76.347656 C 42.511719 76.996094 43.273438 77.574219 44.089844 78.082031 C 44.90625 78.589844 45.765625 79.019531 46.660156 79.367188 C 47.558594 79.71875 48.480469 79.980469 49.425781 80.160156 C 50.371094 80.335938 51.324219 80.425781 52.285156 80.425781 L 55.632812 80.425781 L 55.632812 91.410156 C 55.632812 91.910156 55.585938 92.402344 55.5 92.894531 C 55.414062 93.386719 55.285156 93.867188 55.117188 94.335938 C 54.945312 94.804688 54.738281 95.253906 54.488281 95.6875 C 54.242188 96.121094 53.957031 96.527344 53.636719 96.910156 C 53.320312 97.292969 52.96875 97.648438 52.589844 97.96875 C 52.210938 98.292969 51.804688 98.578125 51.375 98.832031 C 50.945312 99.085938 50.496094 99.296875 50.027344 99.472656 C 49.5625 99.648438 49.082031 99.78125 48.59375 99.871094 C 48.425781 99.421875 48.210938 99 47.941406 98.601562 C 47.675781 98.203125 47.367188 97.839844 47.015625 97.515625 C 46.664062 97.191406 46.28125 96.910156 45.863281 96.675781 C 45.445312 96.441406 45.007812 96.257812 44.546875 96.125 C 44.085938 95.992188 43.617188 95.917969 43.140625 95.894531 C 42.660156 95.875 42.1875 95.910156 41.714844 96 C 41.246094 96.089844 40.792969 96.234375 40.355469 96.429688 C 39.917969 96.628906 39.511719 96.871094 39.132812 97.164062 C 38.753906 97.457031 38.414062 97.792969 38.113281 98.164062 C 37.8125 98.539062 37.5625 98.941406 37.355469 99.371094 C 37.148438 99.804688 36.996094 100.257812 36.898438 100.722656 C 36.796875 101.191406 36.753906 101.667969 36.765625 102.144531 C 36.777344 102.625 36.84375 103.09375 36.96875 103.558594 C 37.089844 104.019531 37.265625 104.464844 37.492188 104.886719 C 37.71875 105.308594 37.992188 105.695312 38.308594 106.054688 C 38.628906 106.410156 38.984375 106.726562 39.375 107 C 39.769531 107.273438 40.1875 107.5 40.632812 107.675781 C 41.078125 107.851562 41.539062 107.972656 42.015625 108.039062 C 42.488281 108.105469 42.964844 108.117188 43.441406 108.070312 C 43.917969 108.027344 44.382812 107.925781 44.835938 107.773438 C 45.289062 107.617188 45.71875 107.414062 46.125 107.160156 C 46.527344 106.902344 46.898438 106.605469 47.234375 106.261719 C 47.566406 105.917969 47.859375 105.542969 48.105469 105.132812 C 48.351562 104.722656 48.546875 104.289062 48.691406 103.832031 C 49.433594 103.730469 50.164062 103.5625 50.878906 103.328125 C 51.597656 103.097656 52.285156 102.800781 52.945312 102.445312 C 53.609375 102.089844 54.234375 101.675781 54.824219 101.207031 C 55.410156 100.738281 55.953125 100.222656 56.445312 99.65625 C 56.941406 99.089844 57.382812 98.484375 57.769531 97.835938 C 58.15625 97.191406 58.480469 96.519531 58.746094 95.8125 C 59.011719 95.109375 59.210938 94.386719 59.347656 93.648438 C 59.480469 92.910156 59.550781 92.164062 59.550781 91.410156 L 59.550781 80.425781 L 72.9375 80.425781 L 72.9375 109.980469 C 72.480469 110.132812 72.050781 110.339844 71.644531 110.59375 C 71.234375 110.847656 70.863281 111.148438 70.527344 111.492188 C 70.191406 111.835938 69.898438 112.214844 69.652344 112.625 C 69.402344 113.039062 69.207031 113.472656 69.0625 113.929688 C 68.917969 114.390625 68.828125 114.859375 68.792969 115.339844 C 68.757812 115.816406 68.78125 116.292969 68.859375 116.769531 C 68.9375 117.242188 69.070312 117.703125 69.253906 118.144531 C 69.441406 118.589844 69.675781 119.003906 69.960938 119.394531 C 70.246094 119.78125 70.570312 120.128906 70.9375 120.441406 C 71.304688 120.753906 71.699219 121.015625 72.128906 121.234375 C 72.558594 121.453125 73.007812 121.617188 73.472656 121.726562 C 73.941406 121.839844 74.414062 121.894531 74.898438 121.894531 C 75.378906 121.894531 75.851562 121.839844 76.320312 121.726562 C 76.785156 121.617188 77.234375 121.453125 77.664062 121.234375 C 78.09375 121.015625 78.492188 120.753906 78.855469 120.441406 C 79.222656 120.128906 79.550781 119.78125 79.832031 119.394531 C 80.117188 119.003906 80.351562 118.589844 80.539062 118.144531 C 80.726562 117.703125 80.855469 117.242188 80.933594 116.769531 C 81.011719 116.292969 81.035156 115.816406 81 115.339844 C 80.964844 114.859375 80.875 114.390625 80.730469 113.929688 C 80.585938 113.472656 80.390625 113.039062 80.140625 112.625 C 79.894531 112.214844 79.601562 111.835938 79.265625 111.492188 C 78.929688 111.148438 78.558594 110.847656 78.152344 110.59375 C 77.742188 110.339844 77.3125 110.132812 76.855469 109.980469 L 76.855469 80.425781 L 90.246094 80.425781 L 90.246094 103.523438 C 89.792969 103.675781 89.359375 103.878906 88.953125 104.136719 C 88.546875 104.390625 88.175781 104.691406 87.839844 105.035156 C 87.503906 105.378906 87.210938 105.753906 86.964844 106.167969 C 86.714844 106.578125 86.519531 107.011719 86.375 107.472656 C 86.230469 107.929688 86.140625 108.398438 86.105469 108.878906 C 86.074219 109.355469 86.09375 109.832031 86.171875 110.308594 C 86.25 110.78125 86.382812 111.238281 86.570312 111.683594 C 86.753906 112.125 86.988281 112.539062 87.273438 112.925781 C 87.558594 113.316406 87.882812 113.664062 88.25 113.976562 C 88.617188 114.285156 89.011719 114.550781 89.441406 114.765625 C 89.871094 114.984375 90.316406 115.148438 90.785156 115.261719 C 91.25 115.371094 91.726562 115.429688 92.207031 115.429688 C 92.6875 115.429688 93.160156 115.371094 93.628906 115.261719 C 94.09375 115.148438 94.542969 114.984375 94.972656 114.765625 C 95.398438 114.550781 95.796875 114.285156 96.164062 113.976562 C 96.527344 113.664062 96.855469 113.316406 97.136719 112.925781 C 97.421875 112.539062 97.65625 112.125 97.84375 111.683594 C 98.027344 111.238281 98.160156 110.78125 98.238281 110.308594 C 98.316406 109.832031 98.339844 109.355469 98.304688 108.878906 C 98.269531 108.398438 98.179688 107.929688 98.035156 107.472656 C 97.890625 107.011719 97.695312 106.578125 97.449219 106.167969 C 97.199219 105.753906 96.910156 105.378906 96.574219 105.035156 C 96.238281 104.691406 95.867188 104.390625 95.457031 104.136719 C 95.050781 103.878906 94.621094 103.675781 94.164062 103.523438 L 94.164062 80.425781 L 106.316406 80.425781 L 106.316406 89.246094 C 106.316406 89.980469 106.382812 90.710938 106.515625 91.433594 C 106.648438 92.15625 106.84375 92.859375 107.101562 93.546875 C 107.359375 94.238281 107.675781 94.894531 108.050781 95.527344 C 108.429688 96.15625 108.859375 96.75 109.34375 97.304688 C 109.824219 97.859375 110.351562 98.363281 110.925781 98.824219 C 111.5 99.285156 112.109375 99.6875 112.757812 100.039062 C 113.402344 100.386719 114.074219 100.675781 114.773438 100.90625 C 115.472656 101.132812 116.1875 101.300781 116.914062 101.402344 C 117.058594 101.859375 117.253906 102.292969 117.5 102.707031 C 117.746094 103.121094 118.035156 103.5 118.371094 103.84375 C 118.707031 104.1875 119.078125 104.488281 119.484375 104.746094 C 119.890625 105 120.320312 105.207031 120.777344 105.363281 C 121.230469 105.519531 121.699219 105.617188 122.175781 105.664062 C 122.65625 105.710938 123.132812 105.699219 123.609375 105.632812 C 124.085938 105.566406 124.546875 105.445312 124.996094 105.269531 C 125.441406 105.09375 125.863281 104.867188 126.257812 104.59375 C 126.652344 104.316406 127.007812 104 127.328125 103.640625 C 127.648438 103.28125 127.921875 102.890625 128.148438 102.46875 C 128.378906 102.046875 128.554688 101.601562 128.675781 101.136719 C 128.800781 100.671875 128.867188 100.199219 128.878906 99.71875 C 128.890625 99.238281 128.847656 98.761719 128.746094 98.292969 C 128.648438 97.824219 128.492188 97.371094 128.289062 96.9375 C 128.082031 96.503906 127.828125 96.097656 127.523438 95.722656 C 127.222656 95.351562 126.882812 95.015625 126.5 94.722656 C 126.121094 94.425781 125.710938 94.183594 125.273438 93.984375 C 124.835938 93.785156 124.378906 93.644531 123.910156 93.550781 C 123.4375 93.460938 122.960938 93.425781 122.480469 93.449219 C 122 93.472656 121.527344 93.546875 121.066406 93.679688 C 120.605469 93.8125 120.164062 94 119.746094 94.234375 C 119.328125 94.472656 118.941406 94.753906 118.589844 95.078125 C 118.238281 95.40625 117.925781 95.769531 117.660156 96.171875 C 117.394531 96.570312 117.179688 96.996094 117.011719 97.445312 C 116.539062 97.355469 116.074219 97.222656 115.625 97.050781 C 115.171875 96.878906 114.742188 96.671875 114.328125 96.425781 C 113.910156 96.179688 113.519531 95.898438 113.15625 95.585938 C 112.789062 95.269531 112.453125 94.925781 112.144531 94.554688 C 111.839844 94.183594 111.566406 93.785156 111.328125 93.367188 C 111.089844 92.949219 110.886719 92.511719 110.726562 92.054688 C 110.5625 91.601562 110.441406 91.136719 110.359375 90.664062 C 110.277344 90.1875 110.234375 89.707031 110.234375 89.226562 L 110.234375 80.40625 Z M 42.859375 104.179688 C 42.570312 104.175781 42.289062 104.117188 42.023438 104.003906 C 41.753906 103.890625 41.519531 103.730469 41.316406 103.523438 C 41.113281 103.316406 40.957031 103.078125 40.847656 102.808594 C 40.738281 102.539062 40.683594 102.261719 40.683594 101.96875 C 40.6875 101.679688 40.742188 101.402344 40.855469 101.132812 C 40.96875 100.867188 41.128906 100.628906 41.335938 100.425781 C 41.539062 100.21875 41.777344 100.0625 42.046875 99.953125 C 42.316406 99.84375 42.59375 99.789062 42.886719 99.789062 C 43.175781 99.789062 43.457031 99.847656 43.722656 99.957031 C 43.992188 100.070312 44.230469 100.226562 44.433594 100.433594 C 44.640625 100.640625 44.796875 100.875 44.90625 101.144531 C 45.019531 101.414062 45.074219 101.691406 45.074219 101.984375 C 45.074219 102.277344 45.015625 102.558594 44.902344 102.828125 C 44.792969 103.097656 44.632812 103.335938 44.421875 103.542969 C 44.214844 103.746094 43.976562 103.90625 43.707031 104.015625 C 43.433594 104.125 43.152344 104.179688 42.859375 104.179688 Z M 74.898438 117.964844 C 74.605469 117.964844 74.324219 117.910156 74.058594 117.796875 C 73.789062 117.683594 73.550781 117.527344 73.347656 117.320312 C 73.140625 117.113281 72.984375 116.875 72.871094 116.605469 C 72.761719 116.339844 72.707031 116.058594 72.707031 115.765625 C 72.707031 115.476562 72.761719 115.195312 72.875 114.925781 C 72.988281 114.660156 73.144531 114.421875 73.351562 114.214844 C 73.558594 114.011719 73.792969 113.851562 74.0625 113.742188 C 74.332031 113.628906 74.613281 113.574219 74.902344 113.574219 C 75.195312 113.574219 75.472656 113.632812 75.742188 113.742188 C 76.011719 113.855469 76.25 114.011719 76.453125 114.21875 C 76.660156 114.425781 76.816406 114.660156 76.929688 114.929688 C 77.039062 115.199219 77.097656 115.480469 77.097656 115.769531 C 77.097656 116.0625 77.039062 116.339844 76.925781 116.609375 C 76.816406 116.878906 76.65625 117.117188 76.449219 117.324219 C 76.246094 117.527344 76.007812 117.6875 75.738281 117.796875 C 75.46875 117.910156 75.1875 117.964844 74.898438 117.964844 Z M 92.207031 111.507812 C 91.914062 111.507812 91.632812 111.453125 91.363281 111.34375 C 91.09375 111.230469 90.855469 111.074219 90.648438 110.867188 C 90.441406 110.660156 90.28125 110.421875 90.171875 110.152344 C 90.058594 109.882812 90 109.601562 90 109.3125 C 90 109.019531 90.054688 108.738281 90.167969 108.46875 C 90.277344 108.199219 90.4375 107.960938 90.644531 107.753906 C 90.851562 107.546875 91.089844 107.386719 91.359375 107.277344 C 91.628906 107.164062 91.90625 107.109375 92.199219 107.109375 C 92.492188 107.109375 92.773438 107.164062 93.042969 107.273438 C 93.3125 107.386719 93.550781 107.546875 93.757812 107.753906 C 93.960938 107.957031 94.121094 108.195312 94.234375 108.464844 C 94.34375 108.734375 94.402344 109.015625 94.402344 109.308594 C 94.398438 109.597656 94.34375 109.878906 94.234375 110.148438 C 94.121094 110.417969 93.960938 110.65625 93.757812 110.859375 C 93.550781 111.066406 93.3125 111.226562 93.046875 111.335938 C 92.777344 111.449219 92.496094 111.507812 92.207031 111.507812 Z M 122.738281 97.34375 C 123.03125 97.34375 123.308594 97.398438 123.578125 97.511719 C 123.847656 97.621094 124.085938 97.78125 124.289062 97.988281 C 124.496094 98.191406 124.65625 98.429688 124.765625 98.699219 C 124.878906 98.96875 124.933594 99.246094 124.933594 99.539062 C 124.933594 99.828125 124.878906 100.109375 124.765625 100.378906 C 124.65625 100.648438 124.496094 100.886719 124.289062 101.089844 C 124.085938 101.296875 123.847656 101.457031 123.578125 101.566406 C 123.308594 101.679688 123.03125 101.734375 122.738281 101.734375 C 122.449219 101.734375 122.167969 101.679688 121.898438 101.566406 C 121.628906 101.457031 121.390625 101.296875 121.1875 101.089844 C 120.980469 100.886719 120.824219 100.648438 120.710938 100.378906 C 120.597656 100.109375 120.542969 99.828125 120.542969 99.539062 C 120.542969 99.246094 120.601562 98.96875 120.710938 98.699219 C 120.824219 98.429688 120.984375 98.195312 121.1875 97.988281 C 121.394531 97.78125 121.632812 97.625 121.898438 97.511719 C 122.167969 97.402344 122.449219 97.34375 122.738281 97.34375 Z M 40.664062 64.886719 C 40.664062 64.152344 40.734375 63.429688 40.871094 62.710938 C 41.007812 61.988281 41.214844 61.289062 41.484375 60.609375 C 41.753906 59.929688 42.082031 59.28125 42.476562 58.660156 C 42.867188 58.042969 43.316406 57.46875 43.816406 56.933594 C 44.316406 56.402344 44.863281 55.917969 45.457031 55.488281 C 46.050781 55.058594 46.675781 54.6875 47.339844 54.375 C 48 54.066406 48.6875 53.816406 49.398438 53.636719 C 50.105469 53.453125 50.824219 53.339844 51.554688 53.292969 L 53.402344 53.152344 L 53.402344 51.304688 C 53.402344 50.355469 53.480469 49.410156 53.632812 48.472656 C 53.785156 47.535156 54.011719 46.613281 54.3125 45.714844 C 54.617188 44.8125 54.988281 43.941406 55.429688 43.101562 C 55.871094 42.257812 56.378906 41.460938 56.953125 40.699219 C 57.523438 39.941406 58.152344 39.234375 58.839844 38.578125 C 59.527344 37.921875 60.261719 37.324219 61.046875 36.785156 C 61.828125 36.246094 62.652344 35.777344 63.511719 35.371094 C 64.371094 34.96875 65.257812 34.632812 66.171875 34.371094 C 67.085938 34.113281 68.011719 33.925781 68.957031 33.816406 C 69.902344 33.703125 70.847656 33.667969 71.796875 33.710938 C 72.746094 33.753906 73.6875 33.871094 74.617188 34.066406 C 75.546875 34.261719 76.453125 34.53125 77.339844 34.871094 C 78.226562 35.214844 79.082031 35.625 79.902344 36.101562 C 80.722656 36.582031 81.5 37.125 82.230469 37.730469 C 82.964844 38.335938 83.640625 38.996094 84.269531 39.710938 C 84.894531 40.429688 85.457031 41.1875 85.960938 41.996094 L 86.9375 43.558594 L 88.5625 42.683594 C 90.011719 41.890625 91.558594 41.5 93.210938 41.507812 C 94.019531 41.507812 94.816406 41.605469 95.597656 41.800781 C 96.382812 42 97.128906 42.289062 97.84375 42.671875 C 98.554688 43.050781 99.207031 43.515625 99.804688 44.058594 C 100.402344 44.605469 100.925781 45.210938 101.371094 45.886719 L 102.175781 47.097656 L 103.566406 46.679688 C 103.929688 46.570312 104.296875 46.503906 104.671875 46.480469 C 105.050781 46.460938 105.421875 46.480469 105.792969 46.546875 C 106.164062 46.609375 106.523438 46.71875 106.871094 46.867188 C 107.21875 47.015625 107.542969 47.203125 107.84375 47.425781 C 108.148438 47.652344 108.417969 47.90625 108.660156 48.195312 C 108.90625 48.484375 109.109375 48.796875 109.28125 49.132812 C 109.449219 49.472656 109.578125 49.824219 109.664062 50.1875 C 109.75 50.554688 109.792969 50.929688 109.792969 51.304688 L 109.792969 53.265625 L 113.320312 53.265625 C 114.085938 53.265625 114.839844 53.339844 115.589844 53.488281 C 116.335938 53.636719 117.066406 53.855469 117.769531 54.148438 C 118.472656 54.441406 119.144531 54.800781 119.777344 55.222656 C 120.414062 55.648438 121 56.128906 121.539062 56.667969 C 122.078125 57.207031 122.5625 57.792969 122.984375 58.429688 C 123.410156 59.0625 123.765625 59.734375 124.058594 60.4375 C 124.351562 61.144531 124.570312 61.871094 124.71875 62.617188 C 124.867188 63.367188 124.945312 64.121094 124.945312 64.886719 C 124.945312 65.648438 124.867188 66.40625 124.71875 67.152344 C 124.570312 67.902344 124.351562 68.628906 124.058594 69.332031 C 123.765625 70.039062 123.410156 70.707031 122.984375 71.34375 C 122.5625 71.976562 122.078125 72.5625 121.539062 73.101562 C 121 73.644531 120.414062 74.125 119.777344 74.546875 C 119.144531 74.972656 118.472656 75.332031 117.769531 75.621094 C 117.066406 75.914062 116.335938 76.136719 115.589844 76.285156 C 114.839844 76.433594 114.085938 76.507812 113.320312 76.507812 L 52.285156 76.507812 C 51.523438 76.507812 50.769531 76.429688 50.019531 76.28125 C 49.273438 76.132812 48.546875 75.910156 47.839844 75.617188 C 47.136719 75.324219 46.46875 74.96875 45.832031 74.542969 C 45.199219 74.121094 44.613281 73.636719 44.074219 73.097656 C 43.535156 72.558594 43.050781 71.972656 42.628906 71.339844 C 42.203125 70.703125 41.847656 70.035156 41.554688 69.332031 C 41.261719 68.625 41.039062 67.898438 40.890625 67.152344 C 40.742188 66.402344 40.664062 65.648438 40.664062 64.886719 Z M 40.664062 64.886719 " clip-rule="nonzero"/></clipPath></defs><g clip-path="url(#c13046177d)"><g clip-path="url(#55b2306d08)"><path fill="#203340" d="M 15 7.457031 L 150.066406 7.457031 L 150.066406 142.527344 L 15 142.527344 Z M 15 7.457031 " fill-opacity="1" fill-rule="nonzero"/></g></g><g clip-path="url(#c10be12168)"><g clip-path="url(#4f4be75d53)"><path fill="#00a28e" d="M 36.730469 29.753906 L 36.730469 121.859375 L 128.902344 121.859375 L 128.902344 29.753906 Z M 36.730469 29.753906 " fill-opacity="1" fill-rule="nonzero"/></g></g><g fill="#203340" fill-opacity="1"><g transform="translate(150.067977, 141.686408)"><g><path d="M 28.421875 1.046875 C 24.015625 1.046875 20.128906 -0.00390625 16.765625 -2.109375 C 13.410156 -4.210938 10.78125 -7.382812 8.875 -11.625 C 6.96875 -15.863281 6.015625 -21.113281 6.015625 -27.375 C 6.015625 -33.632812 7.003906 -38.894531 8.984375 -43.15625 C 10.972656 -47.414062 13.710938 -50.597656 17.203125 -52.703125 C 20.703125 -54.804688 24.753906 -55.859375 29.359375 -55.859375 C 33.003906 -55.859375 36.285156 -55.171875 39.203125 -53.796875 C 42.117188 -52.421875 44.617188 -50.15625 46.703125 -47 L 47.75 -47.203125 L 47.75 -76.828125 L 55.859375 -76.828125 L 55.859375 0 L 47.75 0 L 47.75 -8 L 46.703125 -8.203125 C 44.921875 -5.484375 42.492188 -3.257812 39.421875 -1.53125 C 36.359375 0.1875 32.691406 1.046875 28.421875 1.046875 Z M 30.953125 -6.21875 C 36.054688 -6.21875 40.128906 -7.960938 43.171875 -11.453125 C 46.222656 -14.953125 47.75 -20.257812 47.75 -27.375 C 47.75 -34.53125 46.222656 -39.851562 43.171875 -43.34375 C 40.128906 -46.84375 36.054688 -48.59375 30.953125 -48.59375 C 25.691406 -48.59375 21.632812 -46.882812 18.78125 -43.46875 C 15.9375 -40.0625 14.515625 -34.695312 14.515625 -27.375 C 14.515625 -13.269531 19.992188 -6.21875 30.953125 -6.21875 Z M 30.953125 -6.21875 "/></g></g></g><g fill="#203340" fill-opacity="1"><g transform="translate(215.506105, 141.686408)"><g><path d="M 25 1.046875 C 21.550781 1.046875 18.359375 0.59375 15.421875 -0.3125 C 12.492188 -1.226562 10.019531 -2.476562 8 -4.0625 C 5.976562 -5.65625 4.554688 -7.445312 3.734375 -9.4375 L 8.5 -14.40625 L 9.546875 -14.40625 C 11.328125 -11.6875 13.476562 -9.640625 16 -8.265625 C 18.519531 -6.898438 21.519531 -6.21875 25 -6.21875 C 29.039062 -6.21875 32.109375 -7.003906 34.203125 -8.578125 C 36.304688 -10.148438 37.359375 -12.34375 37.359375 -15.15625 C 37.359375 -17.3125 36.722656 -19.09375 35.453125 -20.5 C 34.179688 -21.90625 32.117188 -22.957031 29.265625 -23.65625 L 20.03125 -25.9375 C 15.09375 -27.132812 11.488281 -29.023438 9.21875 -31.609375 C 6.945312 -34.191406 5.8125 -37.382812 5.8125 -41.1875 C 5.8125 -44.175781 6.570312 -46.769531 8.09375 -48.96875 C 9.625 -51.175781 11.820312 -52.875 14.6875 -54.0625 C 17.550781 -55.257812 20.953125 -55.859375 24.890625 -55.859375 C 29.929688 -55.859375 33.898438 -55.148438 36.796875 -53.734375 C 39.691406 -52.328125 41.953125 -50.367188 43.578125 -47.859375 L 39 -43.375 L 38.015625 -43.375 C 36.253906 -45.394531 34.335938 -46.851562 32.265625 -47.75 C 30.203125 -48.644531 27.742188 -49.09375 24.890625 -49.09375 C 21.285156 -49.09375 18.519531 -48.445312 16.59375 -47.15625 C 14.675781 -45.863281 13.71875 -43.992188 13.71875 -41.546875 C 13.71875 -39.328125 14.394531 -37.535156 15.75 -36.171875 C 17.113281 -34.816406 19.484375 -33.722656 22.859375 -32.890625 L 31.953125 -30.703125 C 36.722656 -29.578125 40.164062 -27.707031 42.28125 -25.09375 C 44.40625 -22.476562 45.46875 -19.195312 45.46875 -15.25 C 45.46875 -12.039062 44.703125 -9.207031 43.171875 -6.75 C 41.648438 -4.300781 39.347656 -2.390625 36.265625 -1.015625 C 33.191406 0.359375 29.4375 1.046875 25 1.046875 Z M 25 1.046875 "/></g></g></g><g fill="#203340" fill-opacity="1"><g transform="translate(266.187114, 141.686408)"><g><path d="M 13.359375 0.5 C 11.472656 0.5 9.984375 -0.03125 8.890625 -1.09375 C 7.796875 -2.15625 7.25 -3.5625 7.25 -5.3125 C 7.25 -7.039062 7.796875 -8.457031 8.890625 -9.5625 C 9.984375 -10.675781 11.472656 -11.234375 13.359375 -11.234375 C 15.285156 -11.234375 16.796875 -10.703125 17.890625 -9.640625 C 18.984375 -8.578125 19.53125 -7.171875 19.53125 -5.421875 C 19.53125 -3.660156 18.972656 -2.234375 17.859375 -1.140625 C 16.753906 -0.046875 15.253906 0.5 13.359375 0.5 Z M 13.359375 0.5 "/></g></g></g></svg>