<svg xmlns="http://www.w3.org/2000/svg" xmlns:xlink="http://www.w3.org/1999/xlink" width="500" zoomAndPan="magnify" viewBox="0 0 375 374.999991" height="500" preserveAspectRatio="xMidYMid meet" version="1.0"><defs><filter x="0%" y="0%" width="100%" height="100%" id="86bdd973c2"><feColorMatrix values="0 0 0 0 1 0 0 0 0 1 0 0 0 0 1 0 0 0 1 0" color-interpolation-filters="sRGB"/></filter><g/><mask id="950cbff436"><g filter="url(#86bdd973c2)"><rect x="-37.5" width="450" fill="#000000" y="-37.499999" height="449.999989" fill-opacity="0.08"/></g></mask><clipPath id="e9f7e1baf9"><path d="M 28 216 L 37 216 L 37 224.269531 L 28 224.269531 Z M 28 216 " clip-rule="nonzero"/></clipPath><clipPath id="9746975e4c"><path d="M 168 0.769531 L 225 0.769531 L 225 29 L 168 29 Z M 168 0.769531 " clip-rule="nonzero"/></clipPath><clipPath id="958741cc28"><path d="M 4 0.769531 L 37 0.769531 L 37 33 L 4 33 Z M 4 0.769531 " clip-rule="nonzero"/></clipPath><clipPath id="9f7d82350e"><path d="M 0.769531 8 L 232.359375 8 L 232.359375 213 L 0.769531 213 Z M 0.769531 8 " clip-rule="nonzero"/></clipPath><clipPath id="e986183db9"><path d="M 80 176 L 105 176 L 105 224.269531 L 80 224.269531 Z M 80 176 " clip-rule="nonzero"/></clipPath><clipPath id="5916581016"><rect x="0" width="233" y="0" height="225"/></clipPath><clipPath id="214cfe5975"><path d="M 41.113281 102.859375 L 333.613281 102.859375 L 333.613281 272.359375 L 41.113281 272.359375 Z M 41.113281 102.859375 " clip-rule="nonzero"/></clipPath><clipPath id="c0bb47eb9a"><path d="M 126.410156 126.632812 L 248.660156 126.632812 L 248.660156 248.132812 L 126.410156 248.132812 Z M 126.410156 126.632812 " clip-rule="nonzero"/></clipPath><clipPath id="1107958fe9"><path d="M 62.265625 62.265625 L 149 62.265625 L 149 149 L 62.265625 149 Z M 62.265625 62.265625 " clip-rule="nonzero"/></clipPath><clipPath id="f7a38f43d7"><path d="M 226 62.265625 L 312.765625 62.265625 L 312.765625 149 L 226 149 Z M 226 62.265625 " clip-rule="nonzero"/></clipPath><clipPath id="26b9357a23"><path d="M 226 226 L 312.765625 226 L 312.765625 312.765625 L 226 312.765625 Z M 226 226 " clip-rule="nonzero"/></clipPath><clipPath id="4a9ff0a11e"><path d="M 62.265625 226 L 149 226 L 149 312.765625 L 62.265625 312.765625 Z M 62.265625 226 " clip-rule="nonzero"/></clipPath></defs><g mask="url(#950cbff436)"><g transform="matrix(1, 0, 0, 1, 71, 75)"><g clip-path="url(#5916581016)"><g clip-path="url(#e9f7e1baf9)"><path fill="#203340" d="M 28.714844 216.242188 L 36.695312 216.242188 L 36.695312 224.222656 L 28.714844 224.222656 Z M 28.714844 216.242188 " fill-opacity="1" fill-rule="nonzero"/></g><path fill="#203340" d="M 5.769531 48.652344 L 20.742188 48.652344 C 18.539062 48.652344 16.75 46.863281 16.75 44.660156 C 16.75 42.457031 18.535156 40.671875 20.738281 40.671875 L 4.773438 40.671875 L 4.773438 47.652344 C 4.773438 48.203125 5.21875 48.652344 5.769531 48.652344 Z M 5.769531 48.652344 " fill-opacity="1" fill-rule="nonzero"/><g clip-path="url(#9746975e4c)"><path fill="#203340" d="M 224.234375 1.765625 C 224.234375 1.214844 223.789062 0.769531 223.238281 0.769531 L 169.371094 0.769531 C 168.820312 0.769531 168.371094 1.214844 168.371094 1.765625 L 168.371094 28.699219 L 224.234375 28.699219 Z M 219.074219 15.558594 C 218.296875 16.339844 217.277344 16.730469 216.253906 16.730469 C 215.234375 16.730469 214.210938 16.339844 213.433594 15.558594 L 209.441406 11.570312 C 207.882812 10.011719 207.882812 7.484375 209.441406 5.925781 C 211 4.371094 213.527344 4.371094 215.085938 5.925781 L 219.074219 9.917969 C 220.632812 11.476562 220.632812 14.003906 219.074219 15.558594 Z M 219.074219 15.558594 " fill-opacity="1" fill-rule="nonzero"/></g><path fill="#203340" d="M 36.695312 47.652344 L 36.695312 40.671875 L 20.742188 40.671875 C 22.945312 40.671875 24.734375 42.457031 24.734375 44.660156 C 24.734375 46.863281 22.945312 48.652344 20.742188 48.652344 L 35.695312 48.652344 C 36.246094 48.652344 36.695312 48.203125 36.695312 47.652344 Z M 36.695312 47.652344 " fill-opacity="1" fill-rule="nonzero"/><g clip-path="url(#958741cc28)"><path fill="#203340" d="M 36.695312 1.765625 C 36.695312 1.214844 36.246094 0.769531 35.695312 0.769531 L 5.769531 0.769531 C 5.21875 0.769531 4.773438 1.214844 4.773438 1.765625 L 4.773438 32.691406 L 36.695312 32.691406 Z M 36.695312 1.765625 " fill-opacity="1" fill-rule="nonzero"/></g><path fill="#203340" d="M 188.324219 160.378906 L 228.226562 160.378906 L 228.226562 172.347656 L 188.324219 172.347656 Z M 188.324219 160.378906 " fill-opacity="1" fill-rule="nonzero"/><path fill="#203340" d="M 188.324219 184.320312 L 228.226562 184.320312 L 228.226562 196.289062 L 188.324219 196.289062 Z M 188.324219 184.320312 " fill-opacity="1" fill-rule="nonzero"/><path fill="#203340" d="M 184.332031 176.339844 L 216.253906 176.339844 L 216.253906 180.328125 L 184.332031 180.328125 Z M 184.332031 176.339844 " fill-opacity="1" fill-rule="nonzero"/><path fill="#203340" d="M 164.382812 36.679688 L 228.226562 36.679688 L 228.226562 44.660156 L 164.382812 44.660156 Z M 164.382812 36.679688 " fill-opacity="1" fill-rule="nonzero"/><g clip-path="url(#9f7d82350e)"><path fill="#203340" d="M 224.234375 104.515625 C 221.289062 104.515625 218.71875 106.125 217.335938 108.503906 L 148.421875 108.503906 C 148.421875 101.902344 143.050781 96.535156 136.449219 96.535156 C 136.039062 96.535156 135.628906 96.554688 135.226562 96.59375 C 134.824219 96.636719 134.425781 96.609375 134.046875 96.535156 L 200.292969 96.535156 C 202.496094 96.535156 204.285156 94.746094 204.285156 92.542969 L 204.285156 48.652344 L 196.304688 48.652344 L 196.304688 88.554688 L 128.546875 88.554688 L 131.839844 72.085938 L 146.253906 69.683594 C 147.71875 71.457031 149.933594 72.589844 152.410156 72.589844 C 156.808594 72.589844 160.390625 69.011719 160.390625 64.609375 C 160.390625 60.210938 156.808594 56.628906 152.410156 56.628906 C 148.996094 56.628906 146.085938 58.789062 144.945312 61.808594 L 127.8125 64.664062 C 126.175781 64.9375 124.882812 66.191406 124.554688 67.820312 L 121.074219 85.230469 C 120.878906 85.175781 120.683594 85.128906 120.488281 85.078125 L 120.488281 40.273438 C 120.488281 38.941406 119.820312 37.695312 118.710938 36.953125 L 108.519531 30.160156 L 108.519531 23.628906 C 110.898438 22.246094 112.507812 19.675781 112.507812 16.730469 C 112.507812 12.328125 108.929688 8.75 104.527344 8.75 C 100.128906 8.75 96.546875 12.328125 96.546875 16.730469 C 96.546875 19.675781 98.15625 22.246094 100.539062 23.628906 L 100.539062 32.292969 C 100.539062 33.628906 101.203125 34.875 102.3125 35.613281 L 112.507812 42.410156 L 112.507812 85.078125 C 110.886719 85.496094 109.351562 86.164062 107.953125 87.050781 L 76.597656 62.660156 L 76.597656 51.5625 C 78.976562 50.179688 80.585938 47.605469 80.585938 44.660156 C 80.585938 40.261719 77.007812 36.679688 72.605469 36.679688 C 68.207031 36.679688 64.625 40.261719 64.625 44.660156 C 64.625 47.605469 66.234375 50.179688 68.617188 51.5625 L 68.617188 64.613281 C 68.617188 65.84375 69.183594 67.003906 70.15625 67.761719 L 96.886719 88.554688 L 36.695312 88.554688 L 36.695312 52.640625 L 28.714844 52.640625 L 28.714844 92.542969 C 28.714844 94.746094 30.5 96.535156 32.703125 96.535156 L 98.957031 96.535156 C 98.574219 96.609375 98.175781 96.636719 97.773438 96.59375 C 97.367188 96.554688 96.957031 96.535156 96.546875 96.535156 C 89.945312 96.535156 84.578125 101.902344 84.578125 108.503906 L 15.664062 108.503906 C 14.28125 106.125 11.707031 104.515625 8.761719 104.515625 C 4.363281 104.515625 0.78125 108.09375 0.78125 112.496094 C 0.78125 116.894531 4.363281 120.476562 8.761719 120.476562 C 11.707031 120.476562 14.28125 118.867188 15.664062 116.484375 L 75.652344 116.484375 C 73.742188 118.625 72.605469 121.433594 72.605469 124.464844 C 72.605469 125.863281 72.847656 127.207031 73.292969 128.457031 L 32.703125 128.457031 C 30.5 128.457031 28.714844 130.242188 28.714844 132.445312 L 28.714844 172.347656 L 36.695312 172.347656 L 36.695312 136.4375 L 88.566406 136.4375 L 88.566406 149.015625 L 74.773438 151.316406 C 73.308594 149.539062 71.09375 148.40625 68.617188 148.40625 C 64.214844 148.40625 60.636719 151.988281 60.636719 156.386719 C 60.636719 160.789062 64.214844 164.367188 68.617188 164.367188 C 72.03125 164.367188 74.941406 162.207031 76.078125 159.1875 L 93.214844 156.332031 C 95.136719 156.011719 96.546875 154.347656 96.546875 152.398438 L 96.546875 136.4375 L 112.507812 136.4375 L 112.507812 160.378906 C 112.507812 161.4375 112.929688 162.453125 113.675781 163.199219 L 136.449219 185.972656 L 136.449219 197.371094 C 134.070312 198.753906 132.460938 201.324219 132.460938 204.269531 C 132.460938 208.671875 136.039062 212.25 140.441406 212.25 C 144.839844 212.25 148.421875 208.671875 148.421875 204.269531 C 148.421875 201.324219 146.8125 198.753906 144.429688 197.371094 L 144.429688 184.320312 C 144.429688 183.261719 144.011719 182.246094 143.261719 181.496094 L 120.488281 158.726562 L 120.488281 136.4375 L 124.480469 136.4375 L 124.480469 152.398438 C 124.480469 154.027344 125.472656 155.496094 126.988281 156.101562 L 140.53125 161.519531 C 141.089844 165.378906 144.410156 168.359375 148.421875 168.359375 C 152.820312 168.359375 156.402344 164.777344 156.402344 160.378906 C 156.402344 155.976562 152.820312 152.398438 148.421875 152.398438 C 146.5625 152.398438 144.855469 153.039062 143.496094 154.109375 L 132.460938 149.695312 L 132.460938 136.4375 L 196.304688 136.4375 L 196.304688 156.386719 L 204.285156 156.386719 L 204.285156 132.445312 C 204.285156 130.242188 202.496094 128.457031 200.292969 128.457031 L 159.703125 128.457031 C 160.148438 127.207031 160.390625 125.863281 160.390625 124.464844 C 160.390625 121.433594 159.253906 118.625 157.34375 116.484375 L 217.335938 116.484375 C 218.71875 118.867188 221.289062 120.476562 224.234375 120.476562 C 228.636719 120.476562 232.214844 116.894531 232.214844 112.496094 C 232.214844 108.09375 228.636719 104.515625 224.234375 104.515625 Z M 224.234375 104.515625 " fill-opacity="1" fill-rule="nonzero"/></g><path fill="#203340" d="M 172.363281 184.320312 L 180.34375 184.320312 L 180.34375 196.289062 L 172.363281 196.289062 Z M 172.363281 184.320312 " fill-opacity="1" fill-rule="nonzero"/><path fill="#203340" d="M 184.332031 200.28125 L 216.253906 200.28125 L 216.253906 204.269531 L 184.332031 204.269531 Z M 184.332031 200.28125 " fill-opacity="1" fill-rule="nonzero"/><path fill="#203340" d="M 172.363281 208.261719 L 180.34375 208.261719 L 180.34375 220.230469 L 172.363281 220.230469 Z M 172.363281 208.261719 " fill-opacity="1" fill-rule="nonzero"/><path fill="#203340" d="M 188.324219 208.261719 L 228.226562 208.261719 L 228.226562 220.230469 L 188.324219 220.230469 Z M 188.324219 208.261719 " fill-opacity="1" fill-rule="nonzero"/><path fill="#203340" d="M 172.363281 160.378906 L 180.34375 160.378906 L 180.34375 172.347656 L 172.363281 172.347656 Z M 172.363281 160.378906 " fill-opacity="1" fill-rule="nonzero"/><g clip-path="url(#e986183db9)"><path fill="#203340" d="M 84.578125 176.339844 L 80.585938 176.339844 L 80.585938 224.222656 L 104.527344 224.222656 L 104.527344 176.339844 Z M 92.566406 220.230469 C 90.363281 220.230469 88.574219 218.445312 88.574219 216.242188 C 88.574219 214.035156 90.359375 212.25 92.5625 212.25 L 92.566406 212.25 C 94.769531 212.25 96.558594 214.035156 96.558594 216.242188 C 96.558594 218.445312 94.769531 220.230469 92.566406 220.230469 Z M 96.546875 200.28125 L 88.566406 200.28125 C 86.363281 200.28125 84.578125 198.492188 84.578125 196.289062 C 84.578125 194.085938 86.363281 192.300781 88.566406 192.300781 L 96.546875 192.300781 C 98.75 192.300781 100.539062 194.085938 100.539062 196.289062 C 100.539062 198.492188 98.75 200.28125 96.546875 200.28125 Z M 96.546875 188.308594 L 88.566406 188.308594 C 86.363281 188.308594 84.578125 186.523438 84.578125 184.320312 C 84.578125 182.113281 86.363281 180.328125 88.566406 180.328125 L 96.546875 180.328125 C 98.75 180.328125 100.539062 182.113281 100.539062 184.320312 C 100.539062 186.523438 98.75 188.308594 96.546875 188.308594 Z M 96.546875 188.308594 " fill-opacity="1" fill-rule="nonzero"/></g><path fill="#203340" d="M 59.636719 176.339844 L 5.769531 176.339844 C 5.21875 176.339844 4.773438 176.785156 4.773438 177.335938 L 4.773438 207.261719 C 4.773438 207.8125 5.21875 208.261719 5.769531 208.261719 L 59.636719 208.261719 C 60.1875 208.261719 60.636719 207.8125 60.636719 207.261719 L 60.636719 177.335938 C 60.636719 176.785156 60.1875 176.339844 59.636719 176.339844 Z M 55.476562 191.128906 C 54.699219 191.910156 53.675781 192.300781 52.65625 192.300781 C 51.632812 192.300781 50.613281 191.910156 49.832031 191.128906 L 45.84375 187.140625 C 44.285156 185.582031 44.285156 183.054688 45.84375 181.496094 C 47.402344 179.941406 49.925781 179.941406 51.484375 181.496094 L 55.476562 185.488281 C 57.035156 187.046875 57.035156 189.574219 55.476562 191.128906 Z M 55.476562 191.128906 " fill-opacity="1" fill-rule="nonzero"/></g></g></g><g clip-path="url(#214cfe5975)"><path fill="#00a28e" d="M 331.445312 182.050781 C 332.835938 183.445312 333.707031 185.367188 333.707031 187.5 C 333.707031 189.632812 332.84375 191.554688 331.445312 192.945312 L 254.5 269.890625 C 253.105469 271.285156 251.175781 272.144531 249.050781 272.144531 C 244.796875 272.144531 241.351562 268.699219 241.351562 264.445312 C 241.351562 262.320312 242.210938 260.390625 243.605469 258.996094 L 315.117188 187.5 L 243.605469 116.003906 C 242.210938 114.609375 241.351562 112.679688 241.351562 110.554688 C 241.351562 106.300781 244.796875 102.851562 249.050781 102.851562 C 251.175781 102.851562 253.105469 103.714844 254.5 105.109375 Z M 125.941406 272.136719 C 125.949219 272.136719 125.949219 272.136719 125.957031 272.136719 C 130.203125 272.136719 133.652344 268.691406 133.652344 264.445312 C 133.652344 262.3125 132.789062 260.390625 131.386719 258.996094 L 59.875 187.5 L 131.386719 116.003906 C 132.78125 114.609375 133.644531 112.679688 133.644531 110.554688 C 133.644531 106.300781 130.195312 102.851562 125.941406 102.851562 C 123.816406 102.851562 121.886719 103.714844 120.492188 105.109375 L 43.550781 182.050781 C 42.148438 183.445312 41.285156 185.367188 41.285156 187.5 C 41.285156 189.632812 42.148438 191.554688 43.550781 192.945312 L 120.492188 269.890625 C 121.886719 271.277344 123.808594 272.136719 125.925781 272.136719 C 125.933594 272.136719 125.933594 272.136719 125.941406 272.136719 Z M 125.941406 272.136719 " fill-opacity="1" fill-rule="nonzero"/></g><g clip-path="url(#c0bb47eb9a)"><path fill="#203340" d="M 235.9375 188.308594 C 235.957031 187.722656 236.398438 187.027344 236.921875 186.765625 L 247.554688 181.441406 C 248.078125 181.179688 248.433594 180.492188 248.339844 179.914062 L 245.886719 168.617188 C 245.730469 168.050781 245.125 167.558594 244.539062 167.523438 L 232.449219 166.738281 C 231.863281 166.703125 231.167969 166.242188 230.90625 165.722656 L 229.261719 162.699219 C 228.964844 162.191406 228.96875 161.367188 229.269531 160.863281 L 235.375 150.566406 C 235.671875 150.066406 235.601562 149.292969 235.214844 148.851562 L 226.988281 140.460938 C 226.554688 140.070312 225.78125 139.976562 225.269531 140.261719 L 214.75 146.101562 C 214.238281 146.386719 213.410156 146.371094 212.90625 146.066406 L 210.066406 144.453125 C 209.546875 144.175781 209.109375 143.472656 209.085938 142.886719 L 208.652344 130.828125 C 208.632812 130.242188 208.15625 129.625 207.597656 129.457031 L 196.203125 126.730469 C 195.625 126.625 194.929688 126.960938 194.652344 127.476562 L 188.992188 138.011719 C 188.714844 138.527344 188.246094 138.941406 187.949219 138.9375 L 187.679688 138.9375 C 186.039062 138.9375 183.878906 139.101562 183.878906 139.101562 C 183.292969 139.144531 182.542969 138.785156 182.210938 138.304688 L 175.292969 128.347656 C 174.957031 127.867188 174.222656 127.601562 173.660156 127.757812 L 162.777344 131.429688 C 162.230469 131.648438 161.824219 132.304688 161.871094 132.886719 L 162.800781 144.722656 C 162.84375 145.308594 162.480469 146.046875 161.988281 146.363281 L 158.527344 148.757812 C 158.058594 149.109375 157.230469 149.210938 156.6875 148.984375 L 145.484375 144.347656 C 144.941406 144.121094 144.179688 144.296875 143.789062 144.730469 L 136.804688 153.390625 C 136.460938 153.867188 136.46875 154.636719 136.824219 155.101562 L 143.96875 164.511719 C 144.324219 164.980469 144.414062 165.796875 144.167969 166.328125 L 142.222656 170.980469 C 142.019531 171.527344 141.378906 172.0625 140.800781 172.164062 L 128.914062 174.3125 C 128.335938 174.417969 127.792969 174.972656 127.699219 175.554688 C 127.699219 175.554688 126.535156 182.863281 126.535156 187.226562 L 126.535156 187.25 C 126.535156 187.277344 126.988281 187.460938 127.535156 187.664062 L 138.632812 191.714844 C 139.179688 191.917969 139.699219 192.554688 139.78125 193.132812 L 140.820312 198.804688 C 140.949219 199.375 140.707031 200.167969 140.277344 200.566406 L 131.492188 208.75 C 131.0625 209.152344 130.910156 209.914062 131.152344 210.445312 L 135.945312 219.738281 C 136.238281 220.242188 136.949219 220.550781 137.519531 220.425781 L 149.09375 217.824219 C 149.664062 217.695312 150.449219 217.949219 150.835938 218.386719 L 155.101562 222.824219 C 155.523438 223.230469 155.753906 224.023438 155.609375 224.589844 L 152.664062 236.140625 C 152.519531 236.707031 152.804688 237.425781 153.296875 237.742188 L 162.332031 242.832031 C 162.859375 243.09375 163.621094 242.964844 164.035156 242.550781 L 172.414062 234.054688 C 172.824219 233.636719 173.625 233.421875 174.191406 233.570312 L 180.148438 234.898438 C 180.726562 235 181.347656 235.539062 181.53125 236.09375 L 185.273438 247.324219 C 185.457031 247.878906 186.085938 248.347656 186.671875 248.363281 C 186.671875 248.363281 186.984375 248.371094 187.679688 248.371094 C 191.273438 248.371094 197.164062 247.601562 197.164062 247.601562 C 197.746094 247.527344 198.316406 246.996094 198.4375 246.421875 L 200.914062 234.660156 C 201.035156 234.085938 201.585938 233.464844 202.140625 233.28125 L 207.386719 231.292969 C 207.921875 231.0625 208.738281 231.175781 209.191406 231.542969 L 218.390625 238.949219 C 218.84375 239.316406 219.613281 239.347656 220.097656 239.019531 L 228.730469 232.472656 C 229.179688 232.09375 229.375 231.339844 229.164062 230.792969 L 224.859375 219.484375 C 224.652344 218.9375 224.777344 218.113281 225.140625 217.65625 L 227.992188 213.769531 C 228.320312 213.285156 229.066406 212.941406 229.648438 213.003906 L 241.414062 214.265625 C 241.996094 214.328125 242.664062 213.941406 242.894531 213.402344 L 246.75 202.863281 C 246.921875 202.304688 246.675781 201.558594 246.203125 201.214844 L 236.4375 194.007812 C 235.96875 193.660156 235.628906 192.898438 235.683594 192.316406 Z M 187.523438 223.089844 C 167.84375 223.089844 151.890625 207.136719 151.890625 187.457031 C 151.890625 167.777344 167.84375 151.824219 187.523438 151.824219 C 207.203125 151.824219 223.15625 167.777344 223.15625 187.457031 C 223.15625 207.136719 207.203125 223.089844 187.523438 223.089844 Z M 187.523438 223.089844 " fill-opacity="1" fill-rule="nonzero"/></g><g clip-path="url(#1107958fe9)"><path fill="#203340" d="M 73.3125 148.03125 L 62.265625 148.03125 L 62.265625 62.265625 L 148.03125 62.265625 L 148.03125 73.3125 L 73.3125 73.3125 Z M 73.3125 148.03125 " fill-opacity="1" fill-rule="nonzero"/></g><g clip-path="url(#f7a38f43d7)"><path fill="#203340" d="M 312.730469 148.03125 L 301.679688 148.03125 L 301.679688 73.3125 L 226.960938 73.3125 L 226.960938 62.265625 L 312.730469 62.265625 Z M 312.730469 148.03125 " fill-opacity="1" fill-rule="nonzero"/></g><g clip-path="url(#26b9357a23)"><path fill="#203340" d="M 312.730469 312.730469 L 226.960938 312.730469 L 226.960938 301.679688 L 301.679688 301.679688 L 301.679688 226.960938 L 312.730469 226.960938 Z M 312.730469 312.730469 " fill-opacity="1" fill-rule="nonzero"/></g><g clip-path="url(#4a9ff0a11e)"><path fill="#203340" d="M 148.03125 312.730469 L 62.265625 312.730469 L 62.265625 226.960938 L 73.3125 226.960938 L 73.3125 301.679688 L 148.03125 301.679688 Z M 148.03125 312.730469 " fill-opacity="1" fill-rule="nonzero"/></g><g fill="#203340" fill-opacity="1"><g transform="translate(152.109311, 205.649047)"><g><path d="M 17.484375 -36.84375 C 21.210938 -36.84375 24.414062 -36.171875 27.09375 -34.828125 C 29.78125 -33.492188 31.847656 -31.457031 33.296875 -28.71875 C 34.753906 -25.988281 35.484375 -22.554688 35.484375 -18.421875 C 35.484375 -14.285156 34.753906 -10.847656 33.296875 -8.109375 C 31.847656 -5.367188 29.78125 -3.332031 27.09375 -2 C 24.414062 -0.664062 21.210938 0 17.484375 0 L 5.5625 0 L 5.5625 -36.84375 Z M 17.0625 -3.671875 C 20.132812 -3.671875 22.675781 -4.148438 24.6875 -5.109375 C 26.707031 -6.066406 28.238281 -7.628906 29.28125 -9.796875 C 30.320312 -11.960938 30.84375 -14.835938 30.84375 -18.421875 C 30.84375 -22.015625 30.320312 -24.890625 29.28125 -27.046875 C 28.238281 -29.210938 26.707031 -30.769531 24.6875 -31.71875 C 22.675781 -32.675781 20.132812 -33.15625 17.0625 -33.15625 L 9.90625 -33.15625 L 9.90625 -3.671875 Z M 17.0625 -3.671875 "/></g></g></g><g fill="#203340" fill-opacity="1"><g transform="translate(191.271486, 205.649047)"><g><path d="M 16.109375 0.53125 C 13.785156 0.53125 11.703125 0.21875 9.859375 -0.40625 C 8.023438 -1.039062 6.492188 -1.867188 5.265625 -2.890625 C 4.035156 -3.921875 3.117188 -5.050781 2.515625 -6.28125 L 4.890625 -9.140625 L 5.515625 -9.140625 C 7.804688 -5.296875 11.335938 -3.375 16.109375 -3.375 C 18.878906 -3.375 20.9375 -3.953125 22.28125 -5.109375 C 23.632812 -6.273438 24.3125 -7.890625 24.3125 -9.953125 C 24.3125 -11.160156 24.085938 -12.179688 23.640625 -13.015625 C 23.203125 -13.859375 22.46875 -14.578125 21.4375 -15.171875 C 20.414062 -15.773438 19.023438 -16.296875 17.265625 -16.734375 L 12.953125 -17.796875 C 9.742188 -18.566406 7.378906 -19.796875 5.859375 -21.484375 C 4.335938 -23.171875 3.578125 -25.304688 3.578125 -27.890625 C 3.578125 -29.722656 4.046875 -31.359375 4.984375 -32.796875 C 5.929688 -34.234375 7.3125 -35.351562 9.125 -36.15625 C 10.9375 -36.96875 13.101562 -37.375 15.625 -37.375 C 18.394531 -37.375 20.734375 -36.984375 22.640625 -36.203125 C 24.546875 -35.421875 26.070312 -34.25 27.21875 -32.6875 L 25.09375 -29.84375 L 24.46875 -29.84375 C 23.40625 -31.132812 22.148438 -32.082031 20.703125 -32.6875 C 19.265625 -33.289062 17.570312 -33.59375 15.625 -33.59375 C 13.070312 -33.59375 11.144531 -33.097656 9.84375 -32.109375 C 8.539062 -31.117188 7.890625 -29.75 7.890625 -28 C 7.890625 -26.332031 8.367188 -25.003906 9.328125 -24.015625 C 10.285156 -23.035156 11.894531 -22.28125 14.15625 -21.75 L 18.578125 -20.6875 C 22.148438 -19.84375 24.738281 -18.550781 26.34375 -16.8125 C 27.945312 -15.082031 28.75 -12.863281 28.75 -10.15625 C 28.75 -8.070312 28.28125 -6.226562 27.34375 -4.625 C 26.414062 -3.019531 25.003906 -1.757812 23.109375 -0.84375 C 21.210938 0.0703125 18.878906 0.53125 16.109375 0.53125 Z M 16.109375 0.53125 "/></g></g></g></svg>