<svg xmlns="http://www.w3.org/2000/svg" xmlns:xlink="http://www.w3.org/1999/xlink" width="500" zoomAndPan="magnify" viewBox="0 0 375 374.999991" height="500" preserveAspectRatio="xMidYMid meet" version="1.0"><defs><clipPath id="8a714b65da"><path d="M 17.351562 17.351562 L 357.648438 17.351562 L 357.648438 357.648438 L 17.351562 357.648438 Z M 17.351562 17.351562 " clip-rule="nonzero"/></clipPath><clipPath id="25e935346a"><path d="M 34.601562 17.351562 L 340.398438 17.351562 C 344.972656 17.351562 349.359375 19.171875 352.59375 22.40625 C 355.828125 25.640625 357.648438 30.027344 357.648438 34.601562 L 357.648438 340.398438 C 357.648438 344.972656 355.828125 349.359375 352.59375 352.59375 C 349.359375 355.828125 344.972656 357.648438 340.398438 357.648438 L 34.601562 357.648438 C 30.027344 357.648438 25.640625 355.828125 22.40625 352.59375 C 19.171875 349.359375 17.351562 344.972656 17.351562 340.398438 L 17.351562 34.601562 C 17.351562 30.027344 19.171875 25.640625 22.40625 22.40625 C 25.640625 19.171875 30.027344 17.351562 34.601562 17.351562 Z M 34.601562 17.351562 " clip-rule="nonzero"/></clipPath><clipPath id="10cea83834"><path d="M 43 45 L 334 45 L 334 334.75 L 43 334.75 Z M 43 45 " clip-rule="nonzero"/></clipPath><clipPath id="e13f5315cd"><path d="M 284.332031 204.574219 C 285.933594 204.585938 287.53125 204.515625 289.125 204.367188 C 290.71875 204.21875 292.300781 203.992188 293.875 203.6875 C 295.445312 203.386719 297 203.003906 298.535156 202.546875 C 300.070312 202.09375 301.578125 201.5625 303.058594 200.957031 C 304.542969 200.351562 305.992188 199.675781 307.410156 198.929688 C 308.824219 198.183594 310.203125 197.367188 311.539062 196.484375 C 312.875 195.605469 314.164062 194.65625 315.40625 193.648438 C 316.648438 192.640625 317.839844 191.574219 318.980469 190.445312 C 320.117188 189.320312 321.199219 188.140625 322.222656 186.910156 C 323.242188 185.675781 324.203125 184.398438 325.101562 183.070312 C 325.996094 181.746094 326.828125 180.378906 327.589844 178.96875 C 328.351562 177.5625 329.042969 176.121094 329.664062 174.644531 C 330.285156 173.167969 330.832031 171.667969 331.304688 170.136719 C 331.78125 168.605469 332.175781 167.058594 332.496094 165.488281 C 332.820312 163.921875 333.0625 162.339844 333.226562 160.746094 C 333.394531 159.15625 333.480469 157.558594 333.488281 155.957031 C 333.5 154.355469 333.429688 152.757812 333.28125 151.164062 C 333.132812 149.570312 332.90625 147.984375 332.601562 146.414062 C 332.300781 144.839844 331.917969 143.289062 331.460938 141.753906 C 331.007812 140.21875 330.476562 138.710938 329.871094 137.226562 C 329.265625 135.746094 328.589844 134.292969 327.84375 132.878906 C 327.097656 131.460938 326.28125 130.085938 325.398438 128.75 C 324.519531 127.414062 323.574219 126.125 322.5625 124.878906 C 321.554688 123.636719 320.488281 122.445312 319.359375 121.308594 C 318.234375 120.167969 317.054688 119.089844 315.824219 118.066406 C 314.59375 117.042969 313.3125 116.085938 311.984375 115.1875 C 310.660156 114.289062 309.292969 113.460938 307.882812 112.699219 C 306.476562 111.933594 305.035156 111.242188 303.558594 110.621094 C 302.082031 110 300.582031 109.453125 299.050781 108.980469 C 297.519531 108.507812 295.972656 108.109375 294.402344 107.789062 C 292.835938 107.46875 291.253906 107.226562 289.660156 107.058594 C 288.070312 106.894531 286.472656 106.808594 284.871094 106.796875 C 284.523438 105.292969 284.050781 103.824219 283.457031 102.398438 C 282.863281 100.972656 282.15625 99.605469 281.332031 98.296875 C 280.507812 96.992188 279.578125 95.761719 278.546875 94.609375 C 277.515625 93.457031 276.398438 92.402344 275.1875 91.4375 C 273.980469 90.476562 272.699219 89.621094 271.347656 88.875 C 269.992188 88.125 268.585938 87.496094 267.128906 86.984375 C 265.671875 86.476562 264.179688 86.089844 262.65625 85.828125 C 261.132812 85.570312 259.597656 85.4375 258.054688 85.4375 C 256.855469 85.4375 255.664062 85.511719 254.476562 85.667969 C 253.050781 83.921875 251.5 82.296875 249.820312 80.796875 C 248.140625 79.292969 246.355469 77.933594 244.460938 76.710938 C 242.570312 75.488281 240.59375 74.421875 238.53125 73.507812 C 236.472656 72.59375 234.351562 71.847656 232.175781 71.265625 C 230 70.6875 227.789062 70.277344 225.550781 70.042969 C 223.308594 69.808594 221.0625 69.75 218.8125 69.867188 C 216.5625 69.984375 214.335938 70.273438 212.128906 70.742188 C 209.925781 71.207031 207.769531 71.839844 205.664062 72.644531 C 204.648438 71.269531 203.578125 69.933594 202.457031 68.640625 C 201.339844 67.347656 200.171875 66.097656 198.957031 64.890625 C 197.742188 63.683594 196.484375 62.527344 195.183594 61.417969 C 193.878906 60.308594 192.539062 59.246094 191.15625 58.238281 C 189.773438 57.230469 188.355469 56.277344 186.898438 55.375 C 185.445312 54.476562 183.957031 53.628906 182.4375 52.84375 C 180.921875 52.054688 179.375 51.324219 177.800781 50.652344 C 176.226562 49.980469 174.628906 49.371094 173.007812 48.820312 C 171.386719 48.273438 169.75 47.785156 168.089844 47.359375 C 166.433594 46.933594 164.761719 46.570312 163.078125 46.273438 C 161.394531 45.972656 159.699219 45.738281 157.996094 45.566406 C 156.292969 45.398438 154.585938 45.289062 152.875 45.25 C 151.167969 45.207031 149.457031 45.230469 147.746094 45.320312 C 146.039062 45.410156 144.335938 45.5625 142.636719 45.777344 C 140.941406 45.996094 139.253906 46.277344 137.578125 46.625 C 135.902344 46.96875 134.242188 47.378906 132.597656 47.847656 C 130.953125 48.320312 129.328125 48.851562 127.722656 49.445312 C 126.117188 50.039062 124.539062 50.695312 122.984375 51.410156 C 121.429688 52.125 119.902344 52.894531 118.40625 53.726562 C 116.910156 54.554688 115.445312 55.441406 114.015625 56.378906 C 112.585938 57.320312 111.195312 58.316406 109.839844 59.359375 C 108.488281 60.40625 107.175781 61.503906 105.902344 62.648438 C 104.632812 63.792969 103.40625 64.984375 102.226562 66.226562 C 101.046875 67.464844 99.914062 68.746094 98.828125 70.070312 C 97.746094 71.394531 96.714844 72.757812 95.734375 74.160156 C 94.753906 75.5625 93.828125 77 92.957031 78.472656 C 92.085938 79.945312 91.273438 81.449219 90.515625 82.984375 C 89.757812 84.519531 89.058594 86.078125 88.421875 87.667969 C 87.78125 89.253906 87.203125 90.863281 86.6875 92.496094 C 86.167969 94.125 85.714844 95.773438 85.324219 97.441406 C 84.929688 99.105469 84.601562 100.785156 84.339844 102.472656 C 84.074219 104.164062 83.871094 105.863281 83.738281 107.570312 C 82.25 107.835938 80.78125 108.171875 79.324219 108.574219 C 77.871094 108.976562 76.4375 109.449219 75.023438 109.984375 C 73.613281 110.519531 72.230469 111.121094 70.871094 111.785156 C 69.515625 112.449219 68.195312 113.175781 66.90625 113.960938 C 65.617188 114.75 64.367188 115.59375 63.15625 116.496094 C 61.945312 117.398438 60.78125 118.355469 59.65625 119.367188 C 58.535156 120.378906 57.464844 121.4375 56.4375 122.546875 C 55.414062 123.660156 54.445312 124.8125 53.527344 126.015625 C 52.613281 127.214844 51.753906 128.453125 50.953125 129.734375 C 50.148438 131.011719 49.410156 132.328125 48.730469 133.675781 C 48.050781 135.023438 47.433594 136.402344 46.882812 137.808594 C 46.328125 139.210938 45.84375 140.640625 45.421875 142.089844 C 45.003906 143.542969 44.652344 145.007812 44.367188 146.492188 C 44.082031 147.972656 43.867188 149.46875 43.722656 150.96875 C 43.578125 152.472656 43.5 153.980469 43.496094 155.492188 C 43.488281 157 43.550781 158.507812 43.6875 160.011719 C 43.820312 161.515625 44.023438 163.011719 44.292969 164.496094 C 44.566406 165.980469 44.90625 167.449219 45.316406 168.90625 C 45.722656 170.359375 46.199219 171.789062 46.738281 173.199219 C 47.28125 174.609375 47.886719 175.992188 48.554688 177.347656 C 49.222656 178.699219 49.953125 180.019531 50.746094 181.304688 C 51.535156 182.59375 52.386719 183.839844 53.292969 185.046875 C 54.199219 186.253906 55.160156 187.417969 56.175781 188.535156 C 57.1875 189.652344 58.253906 190.722656 59.367188 191.742188 C 60.480469 192.761719 61.640625 193.730469 62.84375 194.640625 C 64.046875 195.554688 65.289062 196.410156 66.570312 197.207031 C 67.851562 198.003906 69.167969 198.738281 70.519531 199.414062 C 71.871094 200.089844 73.25 200.703125 74.65625 201.25 C 76.066406 201.796875 77.496094 202.277344 78.945312 202.691406 C 80.398438 203.109375 81.867188 203.453125 83.351562 203.734375 C 84.835938 204.011719 86.328125 204.222656 87.832031 204.363281 C 89.335938 204.503906 90.84375 204.574219 92.351562 204.574219 L 102.878906 204.574219 L 102.878906 239.128906 C 102.875 240.699219 102.738281 242.253906 102.464844 243.800781 C 102.191406 245.34375 101.789062 246.855469 101.253906 248.328125 C 100.71875 249.804688 100.0625 251.222656 99.28125 252.582031 C 98.5 253.945312 97.609375 255.226562 96.605469 256.433594 C 95.601562 257.636719 94.5 258.75 93.304688 259.765625 C 92.109375 260.777344 90.835938 261.683594 89.480469 262.476562 C 88.128906 263.269531 86.71875 263.941406 85.25 264.492188 C 83.777344 265.042969 82.273438 265.460938 80.730469 265.746094 C 80.46875 265.042969 80.167969 264.359375 79.828125 263.6875 C 79.488281 263.019531 79.105469 262.375 78.691406 261.75 C 78.273438 261.125 77.820312 260.527344 77.332031 259.957031 C 76.84375 259.386719 76.328125 258.847656 75.777344 258.335938 C 75.226562 257.824219 74.648438 257.347656 74.039062 256.90625 C 73.433594 256.464844 72.804688 256.058594 72.148438 255.691406 C 71.496094 255.324219 70.820312 254.992188 70.128906 254.703125 C 69.4375 254.414062 68.730469 254.167969 68.007812 253.960938 C 67.285156 253.753906 66.554688 253.589844 65.8125 253.46875 C 65.074219 253.347656 64.328125 253.273438 63.578125 253.238281 C 62.828125 253.207031 62.078125 253.214844 61.328125 253.269531 C 60.582031 253.324219 59.835938 253.421875 59.101562 253.566406 C 58.363281 253.707031 57.636719 253.890625 56.921875 254.117188 C 56.207031 254.34375 55.503906 254.613281 54.820312 254.921875 C 54.136719 255.230469 53.472656 255.578125 52.832031 255.964844 C 52.1875 256.351562 51.566406 256.773438 50.972656 257.234375 C 50.378906 257.695312 49.816406 258.1875 49.28125 258.710938 C 48.742188 259.238281 48.242188 259.792969 47.769531 260.378906 C 47.296875 260.960938 46.863281 261.570312 46.464844 262.207031 C 46.066406 262.84375 45.703125 263.5 45.382812 264.179688 C 45.058594 264.855469 44.777344 265.550781 44.535156 266.261719 C 44.296875 266.972656 44.097656 267.695312 43.941406 268.429688 C 43.785156 269.164062 43.671875 269.90625 43.601562 270.652344 C 43.535156 271.398438 43.507812 272.148438 43.527344 272.898438 C 43.546875 273.648438 43.609375 274.394531 43.714844 275.140625 C 43.820312 275.882812 43.96875 276.617188 44.160156 277.34375 C 44.355469 278.066406 44.589844 278.78125 44.863281 279.476562 C 45.140625 280.175781 45.457031 280.855469 45.8125 281.515625 C 46.167969 282.179688 46.558594 282.816406 46.988281 283.433594 C 47.417969 284.046875 47.882812 284.636719 48.382812 285.195312 C 48.882812 285.757812 49.414062 286.285156 49.976562 286.785156 C 50.535156 287.28125 51.125 287.746094 51.742188 288.175781 C 52.355469 288.605469 52.996094 288.996094 53.65625 289.351562 C 54.316406 289.707031 55 290.019531 55.695312 290.296875 C 56.394531 290.570312 57.109375 290.804688 57.832031 290.996094 C 58.558594 291.1875 59.292969 291.332031 60.039062 291.4375 C 60.78125 291.542969 61.527344 291.605469 62.277344 291.621094 C 63.027344 291.640625 63.777344 291.613281 64.523438 291.542969 C 65.273438 291.472656 66.011719 291.359375 66.746094 291.203125 C 67.480469 291.042969 68.203125 290.84375 68.914062 290.601562 C 69.625 290.363281 70.320312 290.078125 70.996094 289.753906 C 71.675781 289.433594 72.332031 289.070312 72.964844 288.671875 C 73.601562 288.269531 74.210938 287.832031 74.792969 287.363281 C 75.378906 286.890625 75.933594 286.386719 76.457031 285.847656 C 76.980469 285.3125 77.472656 284.746094 77.933594 284.152344 C 78.390625 283.558594 78.8125 282.9375 79.199219 282.292969 C 79.585938 281.652344 79.929688 280.988281 80.238281 280.300781 C 80.546875 279.617188 80.8125 278.917969 81.039062 278.199219 C 82.210938 278.042969 83.371094 277.832031 84.519531 277.566406 C 85.671875 277.304688 86.808594 276.988281 87.929688 276.625 C 89.054688 276.257812 90.15625 275.84375 91.242188 275.378906 C 92.328125 274.914062 93.390625 274.402344 94.429688 273.84375 C 95.46875 273.285156 96.484375 272.679688 97.46875 272.027344 C 98.453125 271.378906 99.40625 270.683594 100.332031 269.949219 C 101.253906 269.214844 102.140625 268.4375 102.996094 267.621094 C 103.847656 266.804688 104.664062 265.953125 105.441406 265.066406 C 106.21875 264.175781 106.957031 263.253906 107.648438 262.300781 C 108.34375 261.34375 108.996094 260.363281 109.601562 259.347656 C 110.207031 258.335938 110.765625 257.296875 111.28125 256.234375 C 111.792969 255.171875 112.257812 254.085938 112.675781 252.980469 C 113.089844 251.878906 113.457031 250.757812 113.773438 249.617188 C 114.085938 248.480469 114.351562 247.332031 114.5625 246.171875 C 114.777344 245.007812 114.9375 243.839844 115.042969 242.664062 C 115.152344 241.488281 115.207031 240.3125 115.210938 239.128906 L 115.210938 204.574219 L 157.316406 204.574219 L 157.316406 297.542969 C 156.601562 297.785156 155.90625 298.066406 155.222656 298.390625 C 154.542969 298.714844 153.882812 299.074219 153.246094 299.476562 C 152.605469 299.878906 151.996094 300.3125 151.40625 300.785156 C 150.820312 301.257812 150.261719 301.765625 149.734375 302.304688 C 149.207031 302.839844 148.714844 303.410156 148.253906 304.003906 C 147.792969 304.601562 147.367188 305.222656 146.980469 305.867188 C 146.589844 306.515625 146.242188 307.179688 145.933594 307.867188 C 145.621094 308.554688 145.355469 309.257812 145.125 309.976562 C 144.898438 310.695312 144.714844 311.425781 144.574219 312.164062 C 144.433594 312.90625 144.335938 313.652344 144.28125 314.402344 C 144.226562 315.152344 144.21875 315.90625 144.25 316.660156 C 144.285156 317.414062 144.363281 318.160156 144.484375 318.902344 C 144.609375 319.648438 144.773438 320.382812 144.984375 321.105469 C 145.191406 321.832031 145.441406 322.539062 145.734375 323.234375 C 146.023438 323.929688 146.355469 324.605469 146.726562 325.261719 C 147.097656 325.917969 147.507812 326.546875 147.953125 327.15625 C 148.398438 327.765625 148.878906 328.34375 149.390625 328.894531 C 149.902344 329.449219 150.449219 329.96875 151.023438 330.457031 C 151.597656 330.941406 152.199219 331.394531 152.824219 331.8125 C 153.453125 332.230469 154.105469 332.609375 154.777344 332.949219 C 155.449219 333.289062 156.136719 333.589844 156.84375 333.851562 C 157.554688 334.109375 158.273438 334.328125 159.007812 334.503906 C 159.738281 334.679688 160.480469 334.808594 161.226562 334.898438 C 161.976562 334.984375 162.726562 335.03125 163.480469 335.03125 C 164.234375 335.03125 164.984375 334.984375 165.734375 334.898438 C 166.484375 334.808594 167.222656 334.679688 167.957031 334.503906 C 168.691406 334.328125 169.410156 334.109375 170.117188 333.851562 C 170.824219 333.589844 171.515625 333.289062 172.1875 332.949219 C 172.859375 332.609375 173.507812 332.230469 174.136719 331.8125 C 174.765625 331.394531 175.367188 330.941406 175.941406 330.457031 C 176.515625 329.96875 177.058594 329.449219 177.570312 328.894531 C 178.085938 328.34375 178.566406 327.765625 179.011719 327.15625 C 179.457031 326.546875 179.863281 325.917969 180.234375 325.261719 C 180.605469 324.605469 180.9375 323.929688 181.230469 323.234375 C 181.523438 322.539062 181.773438 321.832031 181.980469 321.105469 C 182.1875 320.382812 182.355469 319.648438 182.476562 318.902344 C 182.597656 318.160156 182.675781 317.414062 182.710938 316.660156 C 182.746094 315.90625 182.734375 315.152344 182.683594 314.402344 C 182.628906 313.652344 182.53125 312.90625 182.390625 312.164062 C 182.246094 311.425781 182.0625 310.695312 181.835938 309.976562 C 181.609375 309.257812 181.339844 308.554688 181.03125 307.867188 C 180.71875 307.179688 180.371094 306.515625 179.984375 305.867188 C 179.59375 305.222656 179.171875 304.601562 178.710938 304.003906 C 178.25 303.410156 177.753906 302.839844 177.226562 302.304688 C 176.699219 301.765625 176.140625 301.257812 175.554688 300.785156 C 174.96875 300.3125 174.355469 299.878906 173.71875 299.476562 C 173.078125 299.074219 172.417969 298.714844 171.738281 298.390625 C 171.058594 298.066406 170.359375 297.785156 169.644531 297.542969 L 169.644531 204.574219 L 211.769531 204.574219 L 211.769531 277.230469 C 211.054688 277.472656 210.359375 277.753906 209.679688 278.078125 C 209 278.398438 208.339844 278.761719 207.703125 279.164062 C 207.066406 279.5625 206.453125 280 205.867188 280.472656 C 205.28125 280.945312 204.722656 281.449219 204.195312 281.988281 C 203.667969 282.523438 203.175781 283.089844 202.714844 283.6875 C 202.253906 284.28125 201.832031 284.902344 201.441406 285.550781 C 201.054688 286.195312 200.707031 286.859375 200.398438 287.546875 C 200.089844 288.234375 199.820312 288.9375 199.59375 289.652344 C 199.367188 290.371094 199.183594 291.101562 199.039062 291.839844 C 198.898438 292.582031 198.800781 293.324219 198.75 294.078125 C 198.695312 294.828125 198.683594 295.578125 198.71875 296.332031 C 198.753906 297.082031 198.832031 297.832031 198.953125 298.574219 C 199.078125 299.316406 199.242188 300.050781 199.449219 300.773438 C 199.660156 301.496094 199.910156 302.207031 200.199219 302.902344 C 200.492188 303.59375 200.824219 304.269531 201.195312 304.925781 C 201.566406 305.582031 201.972656 306.210938 202.417969 306.820312 C 202.863281 307.425781 203.34375 308.003906 203.855469 308.554688 C 204.367188 309.109375 204.914062 309.625 205.484375 310.113281 C 206.058594 310.601562 206.660156 311.054688 207.289062 311.46875 C 207.914062 311.886719 208.566406 312.265625 209.234375 312.605469 C 209.90625 312.945312 210.597656 313.246094 211.304688 313.507812 C 212.011719 313.765625 212.730469 313.984375 213.460938 314.15625 C 214.195312 314.332031 214.933594 314.464844 215.683594 314.554688 C 216.429688 314.640625 217.179688 314.683594 217.933594 314.683594 C 218.6875 314.683594 219.4375 314.640625 220.183594 314.554688 C 220.933594 314.464844 221.671875 314.332031 222.40625 314.15625 C 223.136719 313.984375 223.855469 313.765625 224.5625 313.507812 C 225.269531 313.246094 225.960938 312.945312 226.632812 312.605469 C 227.304688 312.265625 227.953125 311.886719 228.578125 311.46875 C 229.207031 311.054688 229.808594 310.601562 230.382812 310.113281 C 230.957031 309.625 231.5 309.109375 232.011719 308.554688 C 232.523438 308.003906 233.003906 307.425781 233.449219 306.820312 C 233.894531 306.210938 234.300781 305.582031 234.671875 304.925781 C 235.042969 304.269531 235.375 303.59375 235.667969 302.902344 C 235.957031 302.207031 236.207031 301.496094 236.417969 300.773438 C 236.625 300.050781 236.792969 299.316406 236.914062 298.574219 C 237.035156 297.832031 237.113281 297.082031 237.148438 296.332031 C 237.183594 295.578125 237.171875 294.828125 237.121094 294.078125 C 237.066406 293.324219 236.96875 292.582031 236.828125 291.839844 C 236.6875 291.101562 236.5 290.371094 236.273438 289.652344 C 236.046875 288.9375 235.78125 288.234375 235.46875 287.546875 C 235.160156 286.859375 234.8125 286.195312 234.425781 285.550781 C 234.039062 284.902344 233.613281 284.28125 233.152344 283.6875 C 232.691406 283.089844 232.199219 282.523438 231.671875 281.988281 C 231.144531 281.449219 230.585938 280.945312 230 280.472656 C 229.414062 280 228.804688 279.5625 228.164062 279.164062 C 227.527344 278.761719 226.867188 278.398438 226.1875 278.078125 C 225.507812 277.753906 224.8125 277.472656 224.097656 277.230469 L 224.097656 204.574219 L 262.320312 204.574219 L 262.320312 232.316406 C 262.324219 233.472656 262.375 234.621094 262.480469 235.773438 C 262.585938 236.921875 262.742188 238.0625 262.949219 239.195312 C 263.15625 240.332031 263.410156 241.457031 263.71875 242.566406 C 264.027344 243.679688 264.382812 244.773438 264.789062 245.855469 C 265.195312 246.933594 265.648438 247.996094 266.148438 249.035156 C 266.648438 250.074219 267.191406 251.089844 267.785156 252.078125 C 268.375 253.070312 269.011719 254.03125 269.6875 254.964844 C 270.363281 255.898438 271.082031 256.800781 271.839844 257.671875 C 272.597656 258.539062 273.394531 259.375 274.226562 260.171875 C 275.058594 260.972656 275.925781 261.730469 276.828125 262.453125 C 277.726562 263.171875 278.660156 263.851562 279.621094 264.488281 C 280.582031 265.125 281.570312 265.71875 282.585938 266.269531 C 283.597656 266.816406 284.636719 267.320312 285.695312 267.773438 C 286.753906 268.230469 287.832031 268.640625 288.929688 269 C 290.027344 269.359375 291.136719 269.667969 292.257812 269.929688 C 293.382812 270.1875 294.515625 270.398438 295.660156 270.554688 C 295.886719 271.273438 296.152344 271.980469 296.460938 272.667969 C 296.769531 273.355469 297.113281 274.019531 297.5 274.667969 C 297.886719 275.316406 298.3125 275.9375 298.769531 276.535156 C 299.230469 277.132812 299.722656 277.699219 300.25 278.238281 C 300.773438 278.777344 301.332031 279.285156 301.914062 279.761719 C 302.5 280.234375 303.113281 280.671875 303.75 281.074219 C 304.386719 281.476562 305.042969 281.84375 305.722656 282.167969 C 306.402344 282.492188 307.101562 282.777344 307.8125 283.019531 C 308.527344 283.265625 309.25 283.464844 309.988281 283.625 C 310.726562 283.78125 311.46875 283.898438 312.21875 283.96875 C 312.96875 284.039062 313.71875 284.066406 314.472656 284.050781 C 315.226562 284.03125 315.976562 283.972656 316.722656 283.867188 C 317.46875 283.761719 318.207031 283.613281 318.933594 283.421875 C 319.664062 283.230469 320.378906 283 321.082031 282.722656 C 321.78125 282.449219 322.464844 282.132812 323.128906 281.777344 C 323.792969 281.421875 324.433594 281.027344 325.054688 280.597656 C 325.671875 280.167969 326.261719 279.703125 326.828125 279.203125 C 327.390625 278.703125 327.921875 278.171875 328.421875 277.609375 C 328.925781 277.046875 329.390625 276.457031 329.824219 275.839844 C 330.257812 275.222656 330.652344 274.582031 331.007812 273.917969 C 331.363281 273.253906 331.683594 272.570312 331.957031 271.871094 C 332.234375 271.167969 332.46875 270.453125 332.664062 269.726562 C 332.855469 269 333.007812 268.261719 333.113281 267.515625 C 333.21875 266.769531 333.28125 266.019531 333.300781 265.265625 C 333.320312 264.511719 333.292969 263.761719 333.226562 263.011719 C 333.15625 262.261719 333.042969 261.515625 332.886719 260.78125 C 332.730469 260.042969 332.53125 259.316406 332.289062 258.605469 C 332.046875 257.890625 331.761719 257.195312 331.4375 256.511719 C 331.117188 255.832031 330.753906 255.171875 330.351562 254.535156 C 329.949219 253.898438 329.515625 253.285156 329.042969 252.699219 C 328.566406 252.113281 328.0625 251.554688 327.523438 251.027344 C 326.984375 250.5 326.417969 250.007812 325.824219 249.546875 C 325.226562 249.085938 324.605469 248.660156 323.960938 248.273438 C 323.3125 247.882812 322.648438 247.535156 321.960938 247.226562 C 321.273438 246.917969 320.570312 246.648438 319.851562 246.421875 C 319.132812 246.195312 318.40625 246.007812 317.664062 245.867188 C 316.925781 245.726562 316.179688 245.628906 315.425781 245.574219 C 314.675781 245.519531 313.921875 245.507812 313.171875 245.542969 C 312.417969 245.578125 311.667969 245.65625 310.925781 245.777344 C 310.183594 245.898438 309.449219 246.0625 308.722656 246.273438 C 308 246.480469 307.289062 246.730469 306.59375 247.019531 C 305.902344 247.3125 305.226562 247.644531 304.570312 248.011719 C 303.914062 248.382812 303.28125 248.792969 302.671875 249.234375 C 302.0625 249.679688 301.484375 250.160156 300.929688 250.671875 C 300.378906 251.183594 299.859375 251.726562 299.371094 252.300781 C 298.882812 252.875 298.429688 253.476562 298.011719 254.101562 C 297.59375 254.730469 297.214844 255.378906 296.871094 256.050781 C 296.53125 256.722656 296.230469 257.410156 295.96875 258.117188 C 294.476562 257.832031 293.023438 257.417969 291.605469 256.875 C 290.1875 256.335938 288.824219 255.679688 287.519531 254.902344 C 286.214844 254.128906 284.988281 253.246094 283.835938 252.257812 C 282.683594 251.269531 281.625 250.191406 280.660156 249.019531 C 279.695312 247.847656 278.835938 246.605469 278.085938 245.285156 C 277.335938 243.964844 276.707031 242.589844 276.195312 241.160156 C 275.683594 239.734375 275.296875 238.269531 275.039062 236.777344 C 274.777344 235.28125 274.648438 233.773438 274.652344 232.257812 L 274.652344 204.511719 Z M 62.699219 279.296875 C 62.246094 279.292969 61.796875 279.242188 61.355469 279.152344 C 60.914062 279.058594 60.484375 278.925781 60.066406 278.75 C 59.648438 278.570312 59.253906 278.355469 58.878906 278.101562 C 58.503906 277.847656 58.160156 277.558594 57.84375 277.238281 C 57.523438 276.914062 57.242188 276.5625 56.992188 276.1875 C 56.742188 275.808594 56.535156 275.410156 56.363281 274.992188 C 56.191406 274.570312 56.066406 274.140625 55.980469 273.695312 C 55.894531 273.25 55.851562 272.800781 55.855469 272.351562 C 55.859375 271.898438 55.90625 271.449219 55.996094 271.007812 C 56.085938 270.5625 56.21875 270.132812 56.394531 269.714844 C 56.570312 269.296875 56.785156 268.902344 57.039062 268.527344 C 57.292969 268.152344 57.578125 267.804688 57.898438 267.488281 C 58.222656 267.167969 58.570312 266.882812 58.949219 266.632812 C 59.324219 266.382812 59.722656 266.171875 60.140625 266 C 60.558594 265.832031 60.992188 265.699219 61.4375 265.613281 C 61.878906 265.527344 62.328125 265.484375 62.78125 265.484375 C 63.234375 265.488281 63.679688 265.53125 64.125 265.621094 C 64.570312 265.710938 65 265.84375 65.417969 266.015625 C 65.835938 266.191406 66.230469 266.40625 66.605469 266.65625 C 66.984375 266.910156 67.332031 267.195312 67.648438 267.515625 C 67.96875 267.835938 68.253906 268.183594 68.503906 268.5625 C 68.757812 268.9375 68.96875 269.335938 69.140625 269.753906 C 69.3125 270.171875 69.445312 270.601562 69.53125 271.046875 C 69.621094 271.488281 69.664062 271.9375 69.664062 272.390625 C 69.664062 272.847656 69.617188 273.296875 69.527344 273.742188 C 69.4375 274.191406 69.304688 274.625 69.128906 275.042969 C 68.953125 275.464844 68.738281 275.863281 68.484375 276.242188 C 68.230469 276.621094 67.941406 276.96875 67.617188 277.289062 C 67.292969 277.609375 66.941406 277.898438 66.5625 278.148438 C 66.179688 278.398438 65.78125 278.609375 65.359375 278.785156 C 64.9375 278.957031 64.5 279.085938 64.054688 279.171875 C 63.605469 279.257812 63.15625 279.296875 62.699219 279.296875 Z M 163.480469 322.667969 C 163.027344 322.664062 162.578125 322.621094 162.136719 322.53125 C 161.691406 322.441406 161.257812 322.308594 160.839844 322.136719 C 160.421875 321.960938 160.027344 321.746094 159.648438 321.496094 C 159.273438 321.242188 158.925781 320.957031 158.605469 320.636719 C 158.285156 320.3125 158 319.964844 157.75 319.585938 C 157.496094 319.210938 157.285156 318.8125 157.113281 318.394531 C 156.941406 317.972656 156.808594 317.542969 156.722656 317.097656 C 156.636719 316.652344 156.589844 316.203125 156.59375 315.75 C 156.59375 315.296875 156.636719 314.847656 156.726562 314.40625 C 156.816406 313.960938 156.945312 313.527344 157.121094 313.109375 C 157.296875 312.691406 157.507812 312.292969 157.761719 311.917969 C 158.011719 311.542969 158.300781 311.195312 158.621094 310.875 C 158.941406 310.554688 159.289062 310.269531 159.667969 310.015625 C 160.042969 309.765625 160.441406 309.554688 160.859375 309.378906 C 161.277344 309.207031 161.710938 309.074219 162.15625 308.988281 C 162.601562 308.898438 163.046875 308.855469 163.503906 308.855469 C 163.957031 308.855469 164.402344 308.902344 164.847656 308.988281 C 165.292969 309.078125 165.722656 309.210938 166.144531 309.382812 C 166.5625 309.558594 166.957031 309.769531 167.335938 310.023438 C 167.710938 310.273438 168.0625 310.558594 168.382812 310.878906 C 168.703125 311.203125 168.988281 311.550781 169.238281 311.925781 C 169.492188 312.304688 169.703125 312.703125 169.875 313.121094 C 170.050781 313.539062 170.179688 313.96875 170.269531 314.414062 C 170.359375 314.859375 170.402344 315.308594 170.402344 315.761719 C 170.402344 316.214844 170.355469 316.664062 170.265625 317.109375 C 170.175781 317.554688 170.042969 317.984375 169.871094 318.40625 C 169.695312 318.824219 169.484375 319.222656 169.230469 319.597656 C 168.976562 319.976562 168.691406 320.324219 168.371094 320.644531 C 168.046875 320.964844 167.699219 321.25 167.320312 321.503906 C 166.945312 321.753906 166.546875 321.96875 166.125 322.140625 C 165.707031 322.3125 165.273438 322.445312 164.828125 322.535156 C 164.382812 322.621094 163.933594 322.667969 163.480469 322.667969 Z M 217.933594 302.351562 C 217.480469 302.351562 217.027344 302.308594 216.582031 302.222656 C 216.136719 302.132812 215.703125 302.003906 215.285156 301.832031 C 214.863281 301.65625 214.464844 301.445312 214.085938 301.195312 C 213.707031 300.941406 213.355469 300.65625 213.035156 300.335938 C 212.710938 300.015625 212.425781 299.664062 212.171875 299.285156 C 211.917969 298.910156 211.703125 298.511719 211.53125 298.089844 C 211.355469 297.671875 211.222656 297.238281 211.132812 296.792969 C 211.042969 296.347656 211 295.898438 211 295.441406 C 210.996094 294.988281 211.042969 294.539062 211.128906 294.089844 C 211.21875 293.644531 211.347656 293.210938 211.523438 292.792969 C 211.695312 292.371094 211.90625 291.972656 212.160156 291.59375 C 212.410156 291.214844 212.699219 290.867188 213.019531 290.542969 C 213.339844 290.222656 213.691406 289.933594 214.066406 289.683594 C 214.445312 289.429688 214.84375 289.214844 215.265625 289.042969 C 215.683594 288.867188 216.117188 288.734375 216.5625 288.644531 C 217.007812 288.558594 217.457031 288.511719 217.914062 288.511719 C 218.367188 288.511719 218.816406 288.554688 219.265625 288.644531 C 219.710938 288.734375 220.144531 288.863281 220.5625 289.039062 C 220.984375 289.210938 221.382812 289.425781 221.761719 289.675781 C 222.136719 289.929688 222.488281 290.214844 222.808594 290.539062 C 223.132812 290.859375 223.417969 291.207031 223.671875 291.585938 C 223.925781 291.964844 224.136719 292.363281 224.3125 292.78125 C 224.484375 293.203125 224.617188 293.636719 224.707031 294.082031 C 224.792969 294.527344 224.839844 294.976562 224.839844 295.433594 C 224.835938 295.886719 224.792969 296.335938 224.703125 296.78125 C 224.613281 297.222656 224.484375 297.65625 224.308594 298.074219 C 224.136719 298.492188 223.921875 298.890625 223.671875 299.269531 C 223.417969 299.644531 223.132812 299.996094 222.8125 300.316406 C 222.492188 300.636719 222.144531 300.921875 221.769531 301.175781 C 221.390625 301.429688 220.992188 301.640625 220.574219 301.816406 C 220.15625 301.992188 219.726562 302.125 219.28125 302.214844 C 218.835938 302.304688 218.386719 302.351562 217.933594 302.351562 Z M 313.984375 257.792969 C 314.4375 257.792969 314.886719 257.839844 315.332031 257.925781 C 315.777344 258.015625 316.207031 258.148438 316.628906 258.320312 C 317.046875 258.492188 317.445312 258.707031 317.820312 258.957031 C 318.199219 259.210938 318.546875 259.496094 318.867188 259.816406 C 319.1875 260.136719 319.472656 260.488281 319.726562 260.863281 C 319.976562 261.242188 320.191406 261.636719 320.363281 262.058594 C 320.539062 262.476562 320.667969 262.90625 320.757812 263.351562 C 320.84375 263.796875 320.890625 264.246094 320.890625 264.699219 C 320.890625 265.152344 320.84375 265.601562 320.757812 266.046875 C 320.667969 266.492188 320.539062 266.921875 320.363281 267.34375 C 320.191406 267.761719 319.976562 268.160156 319.726562 268.535156 C 319.472656 268.914062 319.1875 269.261719 318.867188 269.582031 C 318.546875 269.902344 318.199219 270.1875 317.820312 270.441406 C 317.445312 270.691406 317.046875 270.90625 316.628906 271.078125 C 316.207031 271.253906 315.777344 271.382812 315.332031 271.472656 C 314.886719 271.558594 314.4375 271.605469 313.984375 271.605469 C 313.53125 271.605469 313.082031 271.558594 312.636719 271.472656 C 312.191406 271.382812 311.761719 271.253906 311.34375 271.078125 C 310.921875 270.90625 310.527344 270.691406 310.148438 270.441406 C 309.773438 270.1875 309.421875 269.902344 309.101562 269.582031 C 308.78125 269.261719 308.496094 268.914062 308.242188 268.535156 C 307.992188 268.160156 307.777344 267.761719 307.605469 267.34375 C 307.433594 266.921875 307.300781 266.492188 307.210938 266.046875 C 307.125 265.601562 307.078125 265.152344 307.082031 264.699219 C 307.082031 264.246094 307.125 263.796875 307.214844 263.355469 C 307.304688 262.910156 307.4375 262.476562 307.609375 262.058594 C 307.785156 261.640625 307.996094 261.242188 308.25 260.867188 C 308.5 260.492188 308.785156 260.140625 309.105469 259.820312 C 309.425781 259.5 309.777344 259.214844 310.152344 258.964844 C 310.527344 258.710938 310.925781 258.5 311.34375 258.324219 C 311.761719 258.152344 312.195312 258.019531 312.640625 257.929688 C 313.082031 257.839844 313.53125 257.796875 313.984375 257.792969 Z M 55.792969 155.6875 C 55.792969 154.539062 55.847656 153.390625 55.957031 152.246094 C 56.066406 151.105469 56.230469 149.96875 56.445312 148.839844 C 56.660156 147.710938 56.929688 146.59375 57.25 145.492188 C 57.570312 144.386719 57.941406 143.304688 58.367188 142.234375 C 58.789062 141.167969 59.261719 140.121094 59.785156 139.097656 C 60.308594 138.074219 60.875 137.078125 61.492188 136.109375 C 62.109375 135.136719 62.769531 134.199219 63.472656 133.292969 C 64.175781 132.382812 64.921875 131.511719 65.710938 130.675781 C 66.496094 129.835938 67.320312 129.039062 68.183594 128.277344 C 69.042969 127.519531 69.941406 126.800781 70.871094 126.125 C 71.800781 125.453125 72.757812 124.820312 73.746094 124.238281 C 74.738281 123.652344 75.75 123.113281 76.789062 122.625 C 77.832031 122.136719 78.890625 121.699219 79.972656 121.308594 C 81.050781 120.917969 82.148438 120.582031 83.261719 120.296875 C 84.375 120.011719 85.5 119.777344 86.632812 119.597656 C 87.769531 119.417969 88.910156 119.292969 90.054688 119.21875 L 95.867188 118.773438 L 95.867188 112.964844 C 95.867188 111.472656 95.925781 109.980469 96.046875 108.492188 C 96.167969 107.007812 96.347656 105.527344 96.585938 104.054688 C 96.828125 102.582031 97.125 101.121094 97.484375 99.671875 C 97.839844 98.222656 98.257812 96.789062 98.730469 95.375 C 99.203125 93.960938 99.734375 92.566406 100.320312 91.195312 C 100.90625 89.820312 101.546875 88.476562 102.242188 87.15625 C 102.9375 85.832031 103.683594 84.542969 104.484375 83.285156 C 105.285156 82.023438 106.132812 80.796875 107.03125 79.605469 C 107.929688 78.414062 108.875 77.261719 109.867188 76.144531 C 110.859375 75.03125 111.894531 73.957031 112.972656 72.925781 C 114.050781 71.894531 115.167969 70.910156 116.328125 69.96875 C 117.484375 69.027344 118.679688 68.132812 119.910156 67.289062 C 121.140625 66.445312 122.402344 65.652344 123.695312 64.90625 C 124.992188 64.164062 126.3125 63.476562 127.664062 62.839844 C 129.011719 62.203125 130.386719 61.625 131.785156 61.101562 C 133.179688 60.574219 134.597656 60.109375 136.03125 59.699219 C 137.464844 59.289062 138.914062 58.9375 140.378906 58.640625 C 141.839844 58.347656 143.3125 58.117188 144.796875 57.941406 C 146.277344 57.765625 147.765625 57.652344 149.257812 57.597656 C 150.746094 57.546875 152.238281 57.550781 153.730469 57.617188 C 155.21875 57.683594 156.707031 57.8125 158.1875 58 C 159.667969 58.183594 161.136719 58.429688 162.597656 58.734375 C 164.058594 59.042969 165.503906 59.40625 166.9375 59.828125 C 168.367188 60.25 169.78125 60.730469 171.171875 61.265625 C 172.566406 61.800781 173.933594 62.394531 175.277344 63.042969 C 176.621094 63.6875 177.9375 64.390625 179.226562 65.140625 C 180.515625 65.894531 181.769531 66.699219 182.992188 67.554688 C 184.21875 68.410156 185.402344 69.3125 186.554688 70.261719 C 187.703125 71.214844 188.8125 72.210938 189.882812 73.25 C 190.953125 74.292969 191.980469 75.375 192.960938 76.496094 C 193.945312 77.621094 194.878906 78.78125 195.765625 79.980469 C 196.65625 81.179688 197.496094 82.414062 198.28125 83.679688 L 201.367188 88.597656 L 206.46875 85.835938 C 208.710938 84.613281 211.070312 83.691406 213.546875 83.0625 C 216.023438 82.4375 218.539062 82.128906 221.09375 82.136719 C 222.359375 82.136719 223.621094 82.214844 224.878906 82.371094 C 226.132812 82.527344 227.375 82.761719 228.605469 83.070312 C 229.832031 83.378906 231.039062 83.761719 232.21875 84.21875 C 233.398438 84.675781 234.546875 85.203125 235.664062 85.800781 C 236.777344 86.398438 237.855469 87.066406 238.886719 87.796875 C 239.921875 88.527344 240.90625 89.320312 241.84375 90.171875 C 242.777344 91.023438 243.660156 91.929688 244.484375 92.894531 C 245.308594 93.855469 246.070312 94.863281 246.769531 95.917969 L 249.296875 99.722656 L 253.675781 98.414062 C 254.242188 98.242188 254.816406 98.105469 255.394531 98 C 255.976562 97.898438 256.5625 97.828125 257.152344 97.792969 C 257.742188 97.757812 258.332031 97.753906 258.921875 97.789062 C 259.511719 97.824219 260.097656 97.890625 260.679688 97.992188 C 261.261719 98.09375 261.835938 98.226562 262.402344 98.398438 C 262.96875 98.566406 263.523438 98.765625 264.066406 99 C 264.609375 99.234375 265.136719 99.496094 265.648438 99.792969 C 266.160156 100.085938 266.65625 100.410156 267.128906 100.761719 C 267.605469 101.113281 268.054688 101.492188 268.484375 101.898438 C 268.917969 102.304688 269.320312 102.730469 269.703125 103.183594 C 270.082031 103.636719 270.433594 104.109375 270.757812 104.601562 C 271.085938 105.097656 271.378906 105.605469 271.644531 106.132812 C 271.910156 106.664062 272.144531 107.203125 272.347656 107.757812 C 272.546875 108.3125 272.71875 108.878906 272.855469 109.453125 C 272.992188 110.027344 273.09375 110.609375 273.160156 111.195312 C 273.230469 111.785156 273.265625 112.371094 273.265625 112.964844 L 273.265625 119.128906 L 284.363281 119.128906 C 285.558594 119.128906 286.753906 119.1875 287.945312 119.304688 C 289.136719 119.421875 290.320312 119.597656 291.496094 119.832031 C 292.667969 120.0625 293.828125 120.355469 294.972656 120.703125 C 296.121094 121.050781 297.246094 121.453125 298.351562 121.910156 C 299.457031 122.371094 300.539062 122.878906 301.59375 123.445312 C 302.652344 124.007812 303.675781 124.625 304.671875 125.289062 C 305.667969 125.953125 306.628906 126.667969 307.554688 127.425781 C 308.480469 128.1875 309.367188 128.988281 310.210938 129.835938 C 311.058594 130.683594 311.863281 131.570312 312.621094 132.496094 C 313.382812 133.417969 314.09375 134.378906 314.757812 135.375 C 315.425781 136.371094 316.039062 137.398438 316.605469 138.453125 C 317.167969 139.507812 317.679688 140.589844 318.136719 141.695312 C 318.597656 142.800781 319 143.929688 319.347656 145.074219 C 319.695312 146.21875 319.984375 147.378906 320.21875 148.554688 C 320.453125 149.730469 320.628906 150.910156 320.746094 152.101562 C 320.863281 153.296875 320.921875 154.488281 320.921875 155.6875 C 320.921875 156.882812 320.863281 158.078125 320.746094 159.269531 C 320.628906 160.460938 320.453125 161.644531 320.21875 162.820312 C 319.984375 163.992188 319.695312 165.152344 319.347656 166.300781 C 319 167.445312 318.597656 168.570312 318.136719 169.675781 C 317.679688 170.785156 317.167969 171.863281 316.605469 172.921875 C 316.039062 173.976562 315.425781 175.003906 314.757812 175.996094 C 314.09375 176.992188 313.382812 177.953125 312.621094 178.878906 C 311.863281 179.804688 311.058594 180.691406 310.210938 181.539062 C 309.367188 182.382812 308.480469 183.1875 307.554688 183.945312 C 306.628906 184.707031 305.667969 185.417969 304.671875 186.085938 C 303.675781 186.75 302.652344 187.363281 301.59375 187.929688 C 300.539062 188.492188 299.457031 189.003906 298.351562 189.460938 C 297.246094 189.921875 296.121094 190.324219 294.972656 190.671875 C 293.828125 191.019531 292.667969 191.308594 291.496094 191.542969 C 290.320312 191.777344 289.136719 191.953125 287.945312 192.070312 C 286.753906 192.1875 285.558594 192.246094 284.363281 192.246094 L 92.351562 192.246094 C 91.15625 192.242188 89.960938 192.183594 88.769531 192.066406 C 87.578125 191.945312 86.398438 191.769531 85.222656 191.535156 C 84.050781 191.300781 82.890625 191.007812 81.746094 190.660156 C 80.601562 190.3125 79.476562 189.910156 78.371094 189.449219 C 77.265625 188.992188 76.183594 188.480469 75.128906 187.914062 C 74.074219 187.351562 73.046875 186.734375 72.050781 186.070312 C 71.058594 185.40625 70.097656 184.691406 69.171875 183.933594 C 68.246094 183.171875 67.363281 182.371094 66.515625 181.523438 C 65.667969 180.675781 64.867188 179.792969 64.105469 178.867188 C 63.347656 177.941406 62.632812 176.980469 61.96875 175.988281 C 61.304688 174.992188 60.6875 173.964844 60.125 172.910156 C 59.558594 171.855469 59.046875 170.777344 58.589844 169.667969 C 58.128906 168.5625 57.726562 167.4375 57.378906 166.292969 C 57.03125 165.148438 56.738281 163.988281 56.503906 162.816406 C 56.269531 161.640625 56.09375 160.460938 55.972656 159.269531 C 55.855469 158.078125 55.796875 156.882812 55.792969 155.6875 Z M 55.792969 155.6875 " clip-rule="nonzero"/></clipPath></defs><g clip-path="url(#8a714b65da)"><g clip-path="url(#25e935346a)"><path fill="#203340" d="M 17.351562 17.351562 L 357.648438 17.351562 L 357.648438 357.648438 L 17.351562 357.648438 Z M 17.351562 17.351562 " fill-opacity="1" fill-rule="nonzero"/></g></g><g clip-path="url(#10cea83834)"><g clip-path="url(#e13f5315cd)"><path fill="#00a28e" d="M 43.488281 45.207031 L 43.488281 334.75 L 333.5 334.75 L 333.5 45.207031 Z M 43.488281 45.207031 " fill-opacity="1" fill-rule="nonzero"/></g></g></svg>
