<svg xmlns="http://www.w3.org/2000/svg" xmlns:xlink="http://www.w3.org/1999/xlink" width="500" zoomAndPan="magnify" viewBox="0 0 375 374.999991" height="500" preserveAspectRatio="xMidYMid meet" version="1.0"><defs><g/><clipPath id="ce9eb76286"><path d="M 163.257812 95.253906 L 209.246094 95.253906 L 209.246094 233.964844 L 163.257812 233.964844 Z M 163.257812 95.253906 " clip-rule="nonzero"/></clipPath></defs><g fill="#56c7f7" fill-opacity="1"><g transform="translate(169.279388, 228.969873)"><g><path d="M 6.609375 -25.359375 C 6.609375 -8.894531 26.800781 2.402344 56.246094 2.402344 C 80.285156 2.402344 104.441406 -8.894531 104.441406 -33.414062 C 104.441406 -83.167969 16.945312 -57.691406 16.945312 -90.742188 C 16.945312 -109.851562 31.367188 -120.1875 54.085938 -120.1875 C 74.035156 -120.1875 92.183594 -110.332031 95.667969 -93.625 C 99.15625 -94.828125 100.476562 -97.832031 100.476562 -101.558594 C 100.476562 -116.820312 75.238281 -122.589844 56.128906 -122.589844 C 33.652344 -122.589844 8.414062 -113.578125 8.414062 -90.140625 C 8.414062 -42.425781 95.789062 -74.996094 95.789062 -30.046875 C 95.789062 -10.214844 77.039062 0 56.246094 0 C 35.09375 0 15.863281 -13.21875 15.863281 -26.199219 C 15.863281 -29.925781 17.1875 -32.929688 20.671875 -34.132812 C 18.988281 -35.574219 17.1875 -36.175781 15.503906 -36.175781 C 10.816406 -36.175781 6.609375 -31.730469 6.609375 -25.359375 Z M 6.609375 -25.359375 "/></g></g></g><g clip-path="url(#ce9eb76286)"><path fill="#252850" d="M 163.257812 95.253906 L 209.246094 95.253906 L 209.246094 233.929688 L 163.257812 233.929688 Z M 163.257812 95.253906 " fill-opacity="1" fill-rule="nonzero"/></g><g fill="#56c7f7" fill-opacity="1"><g transform="translate(90.094656, 228.969873)"><g><path d="M 9.613281 -120.1875 L 9.613281 0 L 47.59375 0 C 79.804688 0 104.441406 -25.238281 104.441406 -60.09375 C 104.441406 -94.949219 79.804688 -120.1875 47.59375 -120.1875 Z M 19.230469 -112.015625 C 19.710938 -116.582031 21.753906 -117.785156 25.480469 -117.785156 C 29.207031 -117.785156 36.777344 -117.902344 40.023438 -117.902344 C 78 -117.902344 94.105469 -87.976562 94.105469 -60.09375 C 94.105469 -32.210938 78 -1.683594 40.023438 -1.683594 C 36.777344 -1.683594 29.207031 -1.804688 25.480469 -1.804688 C 21.152344 -1.804688 19.109375 -3.484375 19.109375 -9.976562 C 19.109375 -25.238281 19.230469 -103.601562 19.230469 -112.015625 Z M 19.230469 -112.015625 "/></g></g></g><g fill="#56c7f7" fill-opacity="1"><g transform="translate(78.063917, 266.49051)"><g><path d="M 1.03125 0 L 1.03125 -8.40625 L 4.265625 -8.40625 C 5.328125 -8.40625 6.160156 -8.03125 6.765625 -7.28125 C 7.378906 -6.53125 7.6875 -5.507812 7.6875 -4.21875 C 7.6875 -2.90625 7.378906 -1.875 6.765625 -1.125 C 6.160156 -0.375 5.328125 0 4.265625 0 Z M 2.09375 -0.953125 L 4.078125 -0.953125 C 4.910156 -0.953125 5.539062 -1.226562 5.96875 -1.78125 C 6.40625 -2.332031 6.625 -3.140625 6.625 -4.203125 C 6.625 -5.265625 6.40625 -6.070312 5.96875 -6.625 C 5.539062 -7.175781 4.910156 -7.453125 4.078125 -7.453125 L 2.09375 -7.453125 Z M 2.09375 -0.953125 "/></g></g></g><g fill="#56c7f7" fill-opacity="1"><g transform="translate(95.60037, 266.49051)"><g><path d="M 8.5625 -4.078125 C 8.5625 -3.472656 8.460938 -2.90625 8.265625 -2.375 C 8.078125 -1.84375 7.8125 -1.378906 7.46875 -0.984375 C 7.125 -0.597656 6.695312 -0.289062 6.1875 -0.0625 C 5.675781 0.15625 5.113281 0.265625 4.5 0.265625 C 3.28125 0.265625 2.296875 -0.140625 1.546875 -0.953125 C 0.804688 -1.765625 0.4375 -2.828125 0.4375 -4.140625 C 0.4375 -5.453125 0.804688 -6.515625 1.546875 -7.328125 C 2.296875 -8.140625 3.273438 -8.546875 4.484375 -8.546875 C 5.710938 -8.546875 6.695312 -8.140625 7.4375 -7.328125 C 8.1875 -6.515625 8.5625 -5.429688 8.5625 -4.078125 Z M 4.484375 -7.59375 C 3.597656 -7.59375 2.878906 -7.273438 2.328125 -6.640625 C 1.773438 -6.003906 1.5 -5.164062 1.5 -4.125 C 1.5 -3.09375 1.773438 -2.257812 2.328125 -1.625 C 2.878906 -0.988281 3.601562 -0.671875 4.5 -0.671875 C 5.382812 -0.671875 6.101562 -0.984375 6.65625 -1.609375 C 7.207031 -2.242188 7.484375 -3.070312 7.484375 -4.09375 C 7.484375 -5.15625 7.207031 -6.003906 6.65625 -6.640625 C 6.113281 -7.273438 5.390625 -7.59375 4.484375 -7.59375 Z M 4.484375 -7.59375 "/></g></g></g><g fill="#56c7f7" fill-opacity="1"><g transform="translate(113.783482, 266.49051)"><g><path d="M 5.390625 0 L 4.265625 0 L 1.875 -7.046875 L 1.875 0 L 0.859375 0 L 0.859375 -8.40625 L 2.34375 -8.40625 L 4.84375 -1.078125 L 7.296875 -8.40625 L 8.78125 -8.40625 L 8.78125 0 L 7.765625 0 L 7.765625 -7.046875 Z M 5.390625 0 "/></g></g></g><g fill="#56c7f7" fill-opacity="1"><g transform="translate(132.594043, 266.49051)"><g><path d="M 2.234375 -8.40625 L 2.234375 0 L 1.15625 0 L 1.15625 -8.40625 Z M 2.234375 -8.40625 "/></g></g></g><g fill="#56c7f7" fill-opacity="1"><g transform="translate(145.014898, 266.49051)"><g><path d="M 7.453125 -8.40625 L 7.453125 0 L 6.234375 0 L 1.890625 -6.8125 L 1.890625 0 L 0.875 0 L 0.875 -8.40625 L 2.046875 -8.40625 L 6.4375 -1.53125 L 6.4375 -8.40625 Z M 7.453125 -8.40625 "/></g></g></g><g fill="#56c7f7" fill-opacity="1"><g transform="translate(162.551349, 266.49051)"><g><path d="M 2.234375 -8.40625 L 2.234375 0 L 1.15625 0 L 1.15625 -8.40625 Z M 2.234375 -8.40625 "/></g></g></g><g fill="#56c7f7" fill-opacity="1"><g transform="translate(174.972204, 266.49051)"><g><path d="M 1.984375 -2.9375 L 1.984375 0 L 0.90625 0 L 0.90625 -8.40625 L 1.984375 -8.40625 L 1.984375 -4.15625 L 6.15625 -8.40625 L 7.546875 -8.40625 L 4.125 -4.984375 L 7.578125 0 L 6.3125 0 L 3.34375 -4.3125 Z M 1.984375 -2.9375 "/></g></g></g><g fill="#56c7f7" fill-opacity="1"><g transform="translate(191.874818, 266.49051)"><g><path d="M 1.15625 -8.40625 L 1.84375 -8.40625 L 1.84375 2.453125 L 1.15625 2.453125 Z M 1.15625 -8.40625 "/></g></g></g><g fill="#56c7f7" fill-opacity="1"><g transform="translate(204.0908, 266.49051)"><g><path d="M 3.953125 -0.671875 C 4.296875 -0.671875 4.597656 -0.707031 4.859375 -0.78125 C 5.128906 -0.851562 5.335938 -0.9375 5.484375 -1.03125 C 5.640625 -1.132812 5.765625 -1.257812 5.859375 -1.40625 C 5.953125 -1.550781 6.015625 -1.6875 6.046875 -1.8125 C 6.078125 -1.9375 6.09375 -2.066406 6.09375 -2.203125 C 6.09375 -2.535156 5.96875 -2.8125 5.71875 -3.03125 C 5.46875 -3.25 5.078125 -3.425781 4.546875 -3.5625 L 2.453125 -4.125 C 1.359375 -4.40625 0.8125 -5.054688 0.8125 -6.078125 C 0.8125 -6.835938 1.078125 -7.4375 1.609375 -7.875 C 2.148438 -8.320312 2.878906 -8.546875 3.796875 -8.546875 C 4.765625 -8.546875 5.515625 -8.316406 6.046875 -7.859375 C 6.585938 -7.398438 6.863281 -6.757812 6.875 -5.9375 L 5.859375 -5.9375 C 5.847656 -6.488281 5.660156 -6.910156 5.296875 -7.203125 C 4.941406 -7.492188 4.429688 -7.640625 3.765625 -7.640625 C 3.191406 -7.640625 2.734375 -7.507812 2.390625 -7.25 C 2.046875 -7 1.875 -6.660156 1.875 -6.234375 C 1.875 -5.898438 1.972656 -5.640625 2.171875 -5.453125 C 2.378906 -5.273438 2.742188 -5.117188 3.265625 -4.984375 L 5.375 -4.40625 C 5.945312 -4.257812 6.382812 -4.003906 6.6875 -3.640625 C 7 -3.273438 7.15625 -2.832031 7.15625 -2.3125 C 7.15625 -2.082031 7.125 -1.859375 7.0625 -1.640625 C 7.007812 -1.421875 6.90625 -1.191406 6.75 -0.953125 C 6.601562 -0.722656 6.410156 -0.519531 6.171875 -0.34375 C 5.929688 -0.164062 5.613281 -0.0195312 5.21875 0.09375 C 4.820312 0.207031 4.375 0.265625 3.875 0.265625 C 3.5625 0.265625 3.257812 0.238281 2.96875 0.1875 C 2.675781 0.132812 2.378906 0.0390625 2.078125 -0.09375 C 1.785156 -0.226562 1.53125 -0.398438 1.3125 -0.609375 C 1.09375 -0.816406 0.910156 -1.097656 0.765625 -1.453125 C 0.628906 -1.816406 0.554688 -2.222656 0.546875 -2.671875 L 1.5625 -2.671875 L 1.5625 -2.609375 C 1.5625 -2.378906 1.597656 -2.160156 1.671875 -1.953125 C 1.742188 -1.742188 1.863281 -1.535156 2.03125 -1.328125 C 2.195312 -1.128906 2.441406 -0.96875 2.765625 -0.84375 C 3.097656 -0.726562 3.492188 -0.671875 3.953125 -0.671875 Z M 3.953125 -0.671875 "/></g></g></g><g fill="#56c7f7" fill-opacity="1"><g transform="translate(220.993421, 266.49051)"><g><path d="M 5.46875 -2.53125 L 2.234375 -2.53125 L 1.34375 0 L 0.203125 0 L 3.203125 -8.40625 L 4.578125 -8.40625 L 7.53125 0 L 6.328125 0 Z M 5.15625 -3.421875 L 3.875 -7.265625 L 2.484375 -3.421875 Z M 5.15625 -3.421875 "/></g></g></g><g fill="#56c7f7" fill-opacity="1"><g transform="translate(237.896042, 266.49051)"><g><path d="M 6.375 -8.40625 L 7.4375 -8.40625 L 7.4375 -2.5 C 7.4375 -1.65625 7.140625 -0.984375 6.546875 -0.484375 C 5.960938 0.015625 5.179688 0.265625 4.203125 0.265625 C 3.203125 0.265625 2.414062 0.0195312 1.84375 -0.46875 C 1.269531 -0.96875 0.984375 -1.644531 0.984375 -2.5 L 0.984375 -8.40625 L 2.046875 -8.40625 L 2.046875 -2.5 C 2.046875 -1.894531 2.238281 -1.4375 2.625 -1.125 C 3.019531 -0.820312 3.546875 -0.671875 4.203125 -0.671875 C 4.867188 -0.671875 5.394531 -0.832031 5.78125 -1.15625 C 6.175781 -1.488281 6.375 -1.9375 6.375 -2.5 Z M 6.375 -8.40625 "/></g></g></g><g fill="#56c7f7" fill-opacity="1"><g transform="translate(255.432501, 266.49051)"><g><path d="M 4.078125 -7.453125 L 4.078125 0 L 3.015625 0 L 3.015625 -7.453125 L 0.25 -7.453125 L 0.25 -8.40625 L 6.84375 -8.40625 L 6.84375 -7.453125 Z M 4.078125 -7.453125 "/></g></g></g><g fill="#56c7f7" fill-opacity="1"><g transform="translate(271.688462, 266.49051)"><g><path d="M 2.109375 -3.828125 L 2.109375 -0.953125 L 7.078125 -0.953125 L 7.078125 0 L 1.03125 0 L 1.03125 -8.40625 L 6.859375 -8.40625 L 6.859375 -7.453125 L 2.109375 -7.453125 L 2.109375 -4.765625 L 6.6875 -4.765625 L 6.6875 -3.828125 Z M 2.109375 -3.828125 "/></g></g></g><g fill="#56c7f7" fill-opacity="1"><g transform="translate(288.591084, 266.49051)"><g><path d="M 6.1875 -4.15625 C 6.46875 -4.03125 6.691406 -3.875 6.859375 -3.6875 C 7.035156 -3.507812 7.148438 -3.320312 7.203125 -3.125 C 7.265625 -2.925781 7.300781 -2.71875 7.3125 -2.5 C 7.332031 -2.28125 7.335938 -2.0625 7.328125 -1.84375 C 7.328125 -1.632812 7.328125 -1.429688 7.328125 -1.234375 C 7.335938 -1.046875 7.378906 -0.863281 7.453125 -0.6875 C 7.535156 -0.507812 7.660156 -0.367188 7.828125 -0.265625 L 7.828125 0 L 6.53125 0 C 6.375 -0.363281 6.296875 -0.820312 6.296875 -1.375 L 6.296875 -2.125 C 6.296875 -2.644531 6.179688 -3.023438 5.953125 -3.265625 C 5.734375 -3.503906 5.382812 -3.625 4.90625 -3.625 L 2.140625 -3.625 L 2.140625 0 L 1.078125 0 L 1.078125 -8.40625 L 4.953125 -8.40625 C 5.773438 -8.40625 6.40625 -8.210938 6.84375 -7.828125 C 7.28125 -7.441406 7.5 -6.882812 7.5 -6.15625 C 7.5 -5.675781 7.394531 -5.28125 7.1875 -4.96875 C 6.988281 -4.65625 6.65625 -4.382812 6.1875 -4.15625 Z M 6.390625 -6.015625 C 6.390625 -6.296875 6.347656 -6.535156 6.265625 -6.734375 C 6.179688 -6.929688 6.054688 -7.078125 5.890625 -7.171875 C 5.734375 -7.273438 5.5625 -7.347656 5.375 -7.390625 C 5.195312 -7.429688 4.984375 -7.453125 4.734375 -7.453125 L 2.140625 -7.453125 L 2.140625 -4.5625 L 4.734375 -4.5625 C 5.304688 -4.5625 5.722656 -4.675781 5.984375 -4.90625 C 6.253906 -5.144531 6.390625 -5.515625 6.390625 -6.015625 Z M 6.390625 -6.015625 "/></g></g></g></svg>